<?xml version="1.0" encoding="UTF-8" standalone="no"?>
<!-- Created with Inkscape (http://www.inkscape.org/) -->

<svg
   xmlns:dc="http://purl.org/dc/elements/1.1/"
   xmlns:cc="http://creativecommons.org/ns#"
   xmlns:rdf="http://www.w3.org/1999/02/22-rdf-syntax-ns#"
   xmlns:svg="http://www.w3.org/2000/svg"
   xmlns="http://www.w3.org/2000/svg"
   xmlns:sodipodi="http://sodipodi.sourceforge.net/DTD/sodipodi-0.dtd"
   xmlns:inkscape="http://www.inkscape.org/namespaces/inkscape"
   id="svg2"
   version="1.1"
   inkscape:version="0.48.4 r9939"
   width="1474.6173"
   height="354.68927"
   xml:space="preserve"
   sodipodi:docname="Figure.pdf"><metadata
     id="metadata8"><rdf:RDF><cc:Work
         rdf:about=""><dc:format>image/svg+xml</dc:format><dc:type
           rdf:resource="http://purl.org/dc/dcmitype/StillImage" /><dc:title></dc:title></cc:Work></rdf:RDF></metadata><defs
     id="defs6"><clipPath
       clipPathUnits="userSpaceOnUse"
       id="clipPath98"><path
         d="m 57.6,38.016 357.12,0 0,266.112 -357.12,0 0,-266.112 z"
         id="path100"
         inkscape:connector-curvature="0" /></clipPath><clipPath
       clipPathUnits="userSpaceOnUse"
       id="clipPath108"><path
         d="m 57.6,38.016 357.12,0 0,266.112 -357.12,0 0,-266.112 z"
         id="path110"
         inkscape:connector-curvature="0" /></clipPath><clipPath
       clipPathUnits="userSpaceOnUse"
       id="clipPath118"><path
         d="m 57.6,38.016 357.12,0 0,266.112 -357.12,0 0,-266.112 z"
         id="path120"
         inkscape:connector-curvature="0" /></clipPath><clipPath
       clipPathUnits="userSpaceOnUse"
       id="clipPath3337"><path
         inkscape:connector-curvature="0"
         d="m 57.6,38.016 357.12,0 0,266.112 -357.12,0 0,-266.112 z"
         id="path3339" /></clipPath><clipPath
       clipPathUnits="userSpaceOnUse"
       id="clipPath3347"><path
         inkscape:connector-curvature="0"
         d="m 57.6,38.016 357.12,0 0,266.112 -357.12,0 0,-266.112 z"
         id="path3349" /></clipPath><clipPath
       clipPathUnits="userSpaceOnUse"
       id="clipPath3357"><path
         inkscape:connector-curvature="0"
         d="m 57.6,38.016 357.12,0 0,266.112 -357.12,0 0,-266.112 z"
         id="path3359" /></clipPath><clipPath
       clipPathUnits="userSpaceOnUse"
       id="clipPath3223"><path
         inkscape:connector-curvature="0"
         d="m 57.6,38.016 357.12,0 0,266.112 -357.12,0 0,-266.112 z"
         id="path3225" /></clipPath><clipPath
       clipPathUnits="userSpaceOnUse"
       id="clipPath3233"><path
         inkscape:connector-curvature="0"
         d="m 57.6,38.016 357.12,0 0,266.112 -357.12,0 0,-266.112 z"
         id="path3235" /></clipPath><clipPath
       clipPathUnits="userSpaceOnUse"
       id="clipPath3243"><path
         inkscape:connector-curvature="0"
         d="m 57.6,38.016 357.12,0 0,266.112 -357.12,0 0,-266.112 z"
         id="path3245" /></clipPath></defs><sodipodi:namedview
     pagecolor="#ffffff"
     bordercolor="#666666"
     borderopacity="1"
     objecttolerance="10"
     gridtolerance="10"
     guidetolerance="10"
     inkscape:pageopacity="0"
     inkscape:pageshadow="2"
     inkscape:window-width="1920"
     inkscape:window-height="1056"
     id="namedview4"
     showgrid="false"
     fit-margin-top="0"
     fit-margin-left="0"
     fit-margin-right="0"
     fit-margin-bottom="0"
     inkscape:zoom="0.5462963"
     inkscape:cx="288"
     inkscape:cy="216"
     inkscape:window-x="0"
     inkscape:window-y="24"
     inkscape:window-maximized="1"
     inkscape:current-layer="g10" /><g
     id="g10"
     inkscape:groupmode="layer"
     inkscape:label="Figure_1"
     transform="matrix(1.25,0,0,-1.25,-3.125e-7,354.68926)"><g
       id="g3873"
       transform="translate(-44.728906,-23.280648)"><path
         id="path16"
         style="fill:#000000;fill-opacity:1;fill-rule:nonzero;stroke:#000000;stroke-width:0.80000001;stroke-linecap:butt;stroke-linejoin:round;stroke-miterlimit:10;stroke-opacity:1;stroke-dasharray:none"
         d="m 73.714912,38.016 0,-3.5"
         inkscape:connector-curvature="0" /><text
         id="text18"
         transform="matrix(1,0,0,-1,62.582099,23.42225)"><tspan
           id="tspan20"
           sodipodi:role="line"
           y="0"
           x="0 6.3600001 9.54 15.9"
           style="font-size:10px;font-variant:normal;font-weight:normal;writing-mode:lr-tb;fill:#000000;fill-opacity:1;fill-rule:nonzero;stroke:none;font-family:DejaVu Sans;-inkscape-font-specification:DejaVuSans">0.50</tspan></text>
<path
         id="path22"
         style="fill:#000000;fill-opacity:1;fill-rule:nonzero;stroke:#000000;stroke-width:0.80000001;stroke-linecap:butt;stroke-linejoin:round;stroke-miterlimit:10;stroke-opacity:1;stroke-dasharray:none"
         d="m 118.493,38.016 0,-3.5"
         inkscape:connector-curvature="0" /><text
         id="text24"
         transform="matrix(1,0,0,-1,107.36019,23.42225)"><tspan
           id="tspan26"
           sodipodi:role="line"
           y="0"
           x="0 6.3600001 9.54 15.9"
           style="font-size:10px;font-variant:normal;font-weight:normal;writing-mode:lr-tb;fill:#000000;fill-opacity:1;fill-rule:nonzero;stroke:none;font-family:DejaVu Sans;-inkscape-font-specification:DejaVuSans">0.75</tspan></text>
<path
         id="path28"
         style="fill:#000000;fill-opacity:1;fill-rule:nonzero;stroke:#000000;stroke-width:0.80000001;stroke-linecap:butt;stroke-linejoin:round;stroke-miterlimit:10;stroke-opacity:1;stroke-dasharray:none"
         d="m 163.27109,38.016 0,-3.5"
         inkscape:connector-curvature="0" /><text
         id="text30"
         transform="matrix(1,0,0,-1,152.13827,23.42225)"><tspan
           id="tspan32"
           sodipodi:role="line"
           y="0"
           x="0 6.3600001 9.54 15.9"
           style="font-size:10px;font-variant:normal;font-weight:normal;writing-mode:lr-tb;fill:#000000;fill-opacity:1;fill-rule:nonzero;stroke:none;font-family:DejaVu Sans;-inkscape-font-specification:DejaVuSans">1.00</tspan></text>
<path
         id="path34"
         style="fill:#000000;fill-opacity:1;fill-rule:nonzero;stroke:#000000;stroke-width:0.80000001;stroke-linecap:butt;stroke-linejoin:round;stroke-miterlimit:10;stroke-opacity:1;stroke-dasharray:none"
         d="m 208.04917,38.016 0,-3.5"
         inkscape:connector-curvature="0" /><text
         id="text36"
         transform="matrix(1,0,0,-1,196.91636,23.42225)"><tspan
           id="tspan38"
           sodipodi:role="line"
           y="0"
           x="0 6.3600001 9.54 15.9"
           style="font-size:10px;font-variant:normal;font-weight:normal;writing-mode:lr-tb;fill:#000000;fill-opacity:1;fill-rule:nonzero;stroke:none;font-family:DejaVu Sans;-inkscape-font-specification:DejaVuSans">1.25</tspan></text>
<path
         id="path40"
         style="fill:#000000;fill-opacity:1;fill-rule:nonzero;stroke:#000000;stroke-width:0.80000001;stroke-linecap:butt;stroke-linejoin:round;stroke-miterlimit:10;stroke-opacity:1;stroke-dasharray:none"
         d="m 252.82726,38.016 0,-3.5"
         inkscape:connector-curvature="0" /><text
         id="text42"
         transform="matrix(1,0,0,-1,241.69445,23.42225)"><tspan
           id="tspan44"
           sodipodi:role="line"
           y="0"
           x="0 6.3600001 9.54 15.9"
           style="font-size:10px;font-variant:normal;font-weight:normal;writing-mode:lr-tb;fill:#000000;fill-opacity:1;fill-rule:nonzero;stroke:none;font-family:DejaVu Sans;-inkscape-font-specification:DejaVuSans">1.50</tspan></text>
<path
         id="path46"
         style="fill:#000000;fill-opacity:1;fill-rule:nonzero;stroke:#000000;stroke-width:0.80000001;stroke-linecap:butt;stroke-linejoin:round;stroke-miterlimit:10;stroke-opacity:1;stroke-dasharray:none"
         d="m 297.60535,38.016 0,-3.5"
         inkscape:connector-curvature="0" /><text
         id="text48"
         transform="matrix(1,0,0,-1,286.47254,23.42225)"><tspan
           id="tspan50"
           sodipodi:role="line"
           y="0"
           x="0 6.3600001 9.54 15.9"
           style="font-size:10px;font-variant:normal;font-weight:normal;writing-mode:lr-tb;fill:#000000;fill-opacity:1;fill-rule:nonzero;stroke:none;font-family:DejaVu Sans;-inkscape-font-specification:DejaVuSans">1.75</tspan></text>
<path
         id="path52"
         style="fill:#000000;fill-opacity:1;fill-rule:nonzero;stroke:#000000;stroke-width:0.80000001;stroke-linecap:butt;stroke-linejoin:round;stroke-miterlimit:10;stroke-opacity:1;stroke-dasharray:none"
         d="m 342.38343,38.016 0,-3.5"
         inkscape:connector-curvature="0" /><text
         id="text54"
         transform="matrix(1,0,0,-1,331.25062,23.42225)"><tspan
           id="tspan56"
           sodipodi:role="line"
           y="0"
           x="0 6.3600001 9.54 15.9"
           style="font-size:10px;font-variant:normal;font-weight:normal;writing-mode:lr-tb;fill:#000000;fill-opacity:1;fill-rule:nonzero;stroke:none;font-family:DejaVu Sans;-inkscape-font-specification:DejaVuSans">2.00</tspan></text>
<path
         id="path58"
         style="fill:#000000;fill-opacity:1;fill-rule:nonzero;stroke:#000000;stroke-width:0.80000001;stroke-linecap:butt;stroke-linejoin:round;stroke-miterlimit:10;stroke-opacity:1;stroke-dasharray:none"
         d="m 387.16152,38.016 0,-3.5"
         inkscape:connector-curvature="0" /><text
         id="text60"
         transform="matrix(1,0,0,-1,376.02871,23.42225)"><tspan
           id="tspan62"
           sodipodi:role="line"
           y="0"
           x="0 6.3600001 9.54 15.9"
           style="font-size:10px;font-variant:normal;font-weight:normal;writing-mode:lr-tb;fill:#000000;fill-opacity:1;fill-rule:nonzero;stroke:none;font-family:DejaVu Sans;-inkscape-font-specification:DejaVuSans">2.25</tspan></text>
<path
         id="path64"
         style="fill:#000000;fill-opacity:1;fill-rule:nonzero;stroke:#000000;stroke-width:0.80000001;stroke-linecap:butt;stroke-linejoin:round;stroke-miterlimit:10;stroke-opacity:1;stroke-dasharray:none"
         d="m 57.6,74.961847 -3.5,0"
         inkscape:connector-curvature="0" /><text
         id="text66"
         transform="matrix(1,0,0,-1,44.240625,71.164972)"><tspan
           id="tspan68"
           y="0"
           x="0"
           style="font-size:10px;font-variant:normal;font-weight:normal;writing-mode:lr-tb;fill:#000000;fill-opacity:1;fill-rule:nonzero;stroke:none;font-family:DejaVu Sans;-inkscape-font-specification:DejaVuSans">4</tspan></text>
<path
         id="path70"
         style="fill:#000000;fill-opacity:1;fill-rule:nonzero;stroke:#000000;stroke-width:0.80000001;stroke-linecap:butt;stroke-linejoin:round;stroke-miterlimit:10;stroke-opacity:1;stroke-dasharray:none"
         d="m 57.6,129.35228 -3.5,0"
         inkscape:connector-curvature="0" /><text
         id="text72"
         transform="matrix(1,0,0,-1,44.240625,125.55541)"><tspan
           id="tspan74"
           y="0"
           x="0"
           style="font-size:10px;font-variant:normal;font-weight:normal;writing-mode:lr-tb;fill:#000000;fill-opacity:1;fill-rule:nonzero;stroke:none;font-family:DejaVu Sans;-inkscape-font-specification:DejaVuSans">5</tspan></text>
<path
         id="path76"
         style="fill:#000000;fill-opacity:1;fill-rule:nonzero;stroke:#000000;stroke-width:0.80000001;stroke-linecap:butt;stroke-linejoin:round;stroke-miterlimit:10;stroke-opacity:1;stroke-dasharray:none"
         d="m 57.6,183.74271 -3.5,0"
         inkscape:connector-curvature="0" /><text
         id="text78"
         transform="matrix(1,0,0,-1,44.240625,179.94584)"><tspan
           id="tspan80"
           y="0"
           x="0"
           style="font-size:10px;font-variant:normal;font-weight:normal;writing-mode:lr-tb;fill:#000000;fill-opacity:1;fill-rule:nonzero;stroke:none;font-family:DejaVu Sans;-inkscape-font-specification:DejaVuSans">6</tspan></text>
<path
         id="path82"
         style="fill:#000000;fill-opacity:1;fill-rule:nonzero;stroke:#000000;stroke-width:0.80000001;stroke-linecap:butt;stroke-linejoin:round;stroke-miterlimit:10;stroke-opacity:1;stroke-dasharray:none"
         d="m 57.6,238.13315 -3.5,0"
         inkscape:connector-curvature="0" /><text
         id="text84"
         transform="matrix(1,0,0,-1,44.240625,234.33627)"><tspan
           id="tspan86"
           y="0"
           x="0"
           style="font-size:10px;font-variant:normal;font-weight:normal;writing-mode:lr-tb;fill:#000000;fill-opacity:1;fill-rule:nonzero;stroke:none;font-family:DejaVu Sans;-inkscape-font-specification:DejaVuSans">7</tspan></text>
<path
         id="path88"
         style="fill:#000000;fill-opacity:1;fill-rule:nonzero;stroke:#000000;stroke-width:0.80000001;stroke-linecap:butt;stroke-linejoin:round;stroke-miterlimit:10;stroke-opacity:1;stroke-dasharray:none"
         d="m 57.6,292.52358 -3.5,0"
         inkscape:connector-curvature="0" /><text
         id="text90"
         transform="matrix(1,0,0,-1,44.240625,288.72671)"><tspan
           id="tspan92"
           y="0"
           x="0"
           style="font-size:10px;font-variant:normal;font-weight:normal;writing-mode:lr-tb;fill:#000000;fill-opacity:1;fill-rule:nonzero;stroke:none;font-family:DejaVu Sans;-inkscape-font-specification:DejaVuSans">8</tspan></text>
<g
         id="g94"><g
           clip-path="url(#clipPath98)"
           id="g96"><path
             id="path102"
             style="fill:none;stroke:#1f77b4;stroke-width:1.5;stroke-linecap:square;stroke-linejoin:round;stroke-miterlimit:10;stroke-opacity:1;stroke-dasharray:none"
             d="m 73.832727,52.112844 10.939353,-0.833337 10.874041,-0.61189 11.067919,-0.396791 10.54275,-0.155399 9.77879,0.06977 9.15844,0.284895 7.96373,0.466272 6.71891,0.60865 5.52312,0.712957 4.61712,0.81692 3.67483,0.867685 3.17394,0.976485 2.81826,1.098385 2.92822,1.38668 3.39462,1.865473 3.4034,2.116878 2.88749,2.051435 2.3079,1.902766 1.89862,1.851487 1.45311,1.71928 1.10311,1.645174 0.74585,1.504796 0.41314,1.316084 0.0997,1.008201 -0.0726,0.330358 0,0"
             inkscape:connector-curvature="0" /></g></g><g
         id="g104"><g
           clip-path="url(#clipPath108)"
           id="g106"><path
             id="path112"
             style="fill:none;stroke:#ff7f0e;stroke-width:1.5;stroke-linecap:butt;stroke-linejoin:round;stroke-miterlimit:10;stroke-opacity:1;stroke-dasharray:1.5, 2.475;stroke-dashoffset:0"
             d="m 73.832727,52.112844 10.939353,-0.833337 10.874041,-0.61189 11.067919,-0.396791 10.54275,-0.155399 9.77879,0.06977 9.15844,0.284895 7.96373,0.466272 6.71891,0.60865 5.52312,0.712957 4.61712,0.81692 3.67483,0.867685 3.17394,0.976485 2.81826,1.098385 2.92822,1.38668 3.39462,1.865473 3.4034,2.116878 2.88749,2.051435 2.3079,1.902766 1.89862,1.851487 1.45311,1.71928 1.10311,1.645174 0.74585,1.504796 0.41314,1.316084 0.0997,1.008201 -0.0726,0.33036 0,0"
             inkscape:connector-curvature="0" /></g></g><g
         id="g114"><g
           clip-path="url(#clipPath118)"
           id="g116"><path
             id="path122"
             style="fill:none;stroke:#2ca02c;stroke-width:1.5;stroke-linecap:square;stroke-linejoin:round;stroke-miterlimit:10;stroke-opacity:1;stroke-dasharray:none"
             d="m 163.50672,246.82558 16.16967,-1.27371 15.20205,-0.98054 15.9963,-0.80274 15.67489,-0.55469 15.17887,-0.3107 14.50833,-0.0763 13.67559,0.14341 12.70496,0.34437 11.63071,0.52336 11.07523,0.72256 9.78083,0.86686 8.51961,0.98242 7.33867,1.07162 6.27504,1.13839 5.35385,1.18803 4.82401,1.29586 4.36105,1.40558 4.01168,1.52689 3.98114,1.7525 4.27661,2.12726 4.79426,2.6351 4.99261,2.99684 4.42543,2.903 4.0088,2.89532 3.42645,2.75091 2.90977,2.61685 2.47277,2.51449 2.0933,2.43893 1.73574,2.3619 1.37399,2.24321 1.03208,2.10703 0.6961,1.91077 0.38596,1.68131 0.0899,1.33025 -0.14324,0.72438 -0.005,0.006 0,0"
             inkscape:connector-curvature="0" /></g></g><g
         id="g124"><path
           id="path126"
           style="fill:none;stroke:#000000;stroke-width:0.80000001;stroke-linecap:square;stroke-linejoin:miter;stroke-miterlimit:10;stroke-opacity:1;stroke-dasharray:none"
           d="m 57.6,38.016 0,266.112"
           inkscape:connector-curvature="0" /><path
           id="path128"
           style="fill:none;stroke:#000000;stroke-width:0.80000001;stroke-linecap:square;stroke-linejoin:miter;stroke-miterlimit:10;stroke-opacity:1;stroke-dasharray:none"
           d="m 414.72,38.016 0,266.112"
           inkscape:connector-curvature="0" /><path
           id="path130"
           style="fill:none;stroke:#000000;stroke-width:0.80000001;stroke-linecap:square;stroke-linejoin:miter;stroke-miterlimit:10;stroke-opacity:1;stroke-dasharray:none"
           d="m 57.6,38.016 357.12,0"
           inkscape:connector-curvature="0" /><path
           id="path132"
           style="fill:none;stroke:#000000;stroke-width:0.80000001;stroke-linecap:square;stroke-linejoin:miter;stroke-miterlimit:10;stroke-opacity:1;stroke-dasharray:none"
           d="m 57.6,304.128 357.12,0"
           inkscape:connector-curvature="0" /></g></g><g
       transform="translate(764.57383,-23.280648)"
       id="g3373"><path
         inkscape:connector-curvature="0"
         id="path3273"
         style="fill:#000000;fill-opacity:1;fill-rule:nonzero;stroke:#000000;stroke-width:0.80000001;stroke-linecap:butt;stroke-linejoin:round;stroke-miterlimit:10;stroke-opacity:1;stroke-dasharray:none"
         d="m 67.902798,38.016 0,-3.5" /><text
         id="text3275"
         transform="matrix(1,0,0,-1,64.723111,23.42225)"><tspan
           id="tspan3277"
           y="0"
           x="0"
           style="font-size:10px;font-variant:normal;font-weight:normal;writing-mode:lr-tb;fill:#000000;fill-opacity:1;fill-rule:nonzero;stroke:none;font-family:DejaVu Sans;-inkscape-font-specification:DejaVuSans">6</tspan></text>
<path
         inkscape:connector-curvature="0"
         id="path3279"
         style="fill:#000000;fill-opacity:1;fill-rule:nonzero;stroke:#000000;stroke-width:0.80000001;stroke-linecap:butt;stroke-linejoin:round;stroke-miterlimit:10;stroke-opacity:1;stroke-dasharray:none"
         d="m 146.01628,38.016 0,-3.5" /><text
         id="text3281"
         transform="matrix(1,0,0,-1,142.83659,23.42225)"><tspan
           id="tspan3283"
           y="0"
           x="0"
           style="font-size:10px;font-variant:normal;font-weight:normal;writing-mode:lr-tb;fill:#000000;fill-opacity:1;fill-rule:nonzero;stroke:none;font-family:DejaVu Sans;-inkscape-font-specification:DejaVuSans">8</tspan></text>
<path
         inkscape:connector-curvature="0"
         id="path3285"
         style="fill:#000000;fill-opacity:1;fill-rule:nonzero;stroke:#000000;stroke-width:0.80000001;stroke-linecap:butt;stroke-linejoin:round;stroke-miterlimit:10;stroke-opacity:1;stroke-dasharray:none"
         d="m 224.12975,38.016 0,-3.5" /><text
         id="text3287"
         transform="matrix(1,0,0,-1,217.77038,23.42225)"><tspan
           id="tspan3289"
           sodipodi:role="line"
           y="0"
           x="0 6.3600001"
           style="font-size:10px;font-variant:normal;font-weight:normal;writing-mode:lr-tb;fill:#000000;fill-opacity:1;fill-rule:nonzero;stroke:none;font-family:DejaVu Sans;-inkscape-font-specification:DejaVuSans">10</tspan></text>
<path
         inkscape:connector-curvature="0"
         id="path3291"
         style="fill:#000000;fill-opacity:1;fill-rule:nonzero;stroke:#000000;stroke-width:0.80000001;stroke-linecap:butt;stroke-linejoin:round;stroke-miterlimit:10;stroke-opacity:1;stroke-dasharray:none"
         d="m 302.24323,38.016 0,-3.5" /><text
         id="text3293"
         transform="matrix(1,0,0,-1,295.88386,23.42225)"><tspan
           id="tspan3295"
           sodipodi:role="line"
           y="0"
           x="0 6.3600001"
           style="font-size:10px;font-variant:normal;font-weight:normal;writing-mode:lr-tb;fill:#000000;fill-opacity:1;fill-rule:nonzero;stroke:none;font-family:DejaVu Sans;-inkscape-font-specification:DejaVuSans">12</tspan></text>
<path
         inkscape:connector-curvature="0"
         id="path3297"
         style="fill:#000000;fill-opacity:1;fill-rule:nonzero;stroke:#000000;stroke-width:0.80000001;stroke-linecap:butt;stroke-linejoin:round;stroke-miterlimit:10;stroke-opacity:1;stroke-dasharray:none"
         d="m 380.35671,38.016 0,-3.5" /><text
         id="text3299"
         transform="matrix(1,0,0,-1,373.99733,23.42225)"><tspan
           id="tspan3301"
           sodipodi:role="line"
           y="0"
           x="0 6.3600001"
           style="font-size:10px;font-variant:normal;font-weight:normal;writing-mode:lr-tb;fill:#000000;fill-opacity:1;fill-rule:nonzero;stroke:none;font-family:DejaVu Sans;-inkscape-font-specification:DejaVuSans">14</tspan></text>
<path
         inkscape:connector-curvature="0"
         id="path3303"
         style="fill:#000000;fill-opacity:1;fill-rule:nonzero;stroke:#000000;stroke-width:0.80000001;stroke-linecap:butt;stroke-linejoin:round;stroke-miterlimit:10;stroke-opacity:1;stroke-dasharray:none"
         d="m 57.6,69.414193 -3.5,0" /><text
         id="text3305"
         transform="matrix(1,0,0,-1,34.69375,65.617318)"><tspan
           id="tspan3307"
           sodipodi:role="line"
           y="0"
           x="0 6.3600001 9.54"
           style="font-size:10px;font-variant:normal;font-weight:normal;writing-mode:lr-tb;fill:#000000;fill-opacity:1;fill-rule:nonzero;stroke:none;font-family:DejaVu Sans;-inkscape-font-specification:DejaVuSans">1.0</tspan></text>
<path
         inkscape:connector-curvature="0"
         id="path3309"
         style="fill:#000000;fill-opacity:1;fill-rule:nonzero;stroke:#000000;stroke-width:0.80000001;stroke-linecap:butt;stroke-linejoin:round;stroke-miterlimit:10;stroke-opacity:1;stroke-dasharray:none"
         d="m 57.6,121.29449 -3.5,0" /><text
         id="text3311"
         transform="matrix(1,0,0,-1,34.69375,117.49761)"><tspan
           id="tspan3313"
           sodipodi:role="line"
           y="0"
           x="0 6.3600001 9.54"
           style="font-size:10px;font-variant:normal;font-weight:normal;writing-mode:lr-tb;fill:#000000;fill-opacity:1;fill-rule:nonzero;stroke:none;font-family:DejaVu Sans;-inkscape-font-specification:DejaVuSans">1.5</tspan></text>
<path
         inkscape:connector-curvature="0"
         id="path3315"
         style="fill:#000000;fill-opacity:1;fill-rule:nonzero;stroke:#000000;stroke-width:0.80000001;stroke-linecap:butt;stroke-linejoin:round;stroke-miterlimit:10;stroke-opacity:1;stroke-dasharray:none"
         d="m 57.6,173.17478 -3.5,0" /><text
         id="text3317"
         transform="matrix(1,0,0,-1,34.69375,169.3779)"><tspan
           id="tspan3319"
           sodipodi:role="line"
           y="0"
           x="0 6.3600001 9.54"
           style="font-size:10px;font-variant:normal;font-weight:normal;writing-mode:lr-tb;fill:#000000;fill-opacity:1;fill-rule:nonzero;stroke:none;font-family:DejaVu Sans;-inkscape-font-specification:DejaVuSans">2.0</tspan></text>
<path
         inkscape:connector-curvature="0"
         id="path3321"
         style="fill:#000000;fill-opacity:1;fill-rule:nonzero;stroke:#000000;stroke-width:0.80000001;stroke-linecap:butt;stroke-linejoin:round;stroke-miterlimit:10;stroke-opacity:1;stroke-dasharray:none"
         d="m 57.6,225.05507 -3.5,0" /><text
         id="text3323"
         transform="matrix(1,0,0,-1,34.69375,221.2582)"><tspan
           id="tspan3325"
           sodipodi:role="line"
           y="0"
           x="0 6.3600001 9.54"
           style="font-size:10px;font-variant:normal;font-weight:normal;writing-mode:lr-tb;fill:#000000;fill-opacity:1;fill-rule:nonzero;stroke:none;font-family:DejaVu Sans;-inkscape-font-specification:DejaVuSans">2.5</tspan></text>
<path
         inkscape:connector-curvature="0"
         id="path3327"
         style="fill:#000000;fill-opacity:1;fill-rule:nonzero;stroke:#000000;stroke-width:0.80000001;stroke-linecap:butt;stroke-linejoin:round;stroke-miterlimit:10;stroke-opacity:1;stroke-dasharray:none"
         d="m 57.6,276.93536 -3.5,0" /><text
         id="text3329"
         transform="matrix(1,0,0,-1,34.69375,273.13849)"><tspan
           id="tspan3331"
           sodipodi:role="line"
           y="0"
           x="0 6.3600001 9.54"
           style="font-size:10px;font-variant:normal;font-weight:normal;writing-mode:lr-tb;fill:#000000;fill-opacity:1;fill-rule:nonzero;stroke:none;font-family:DejaVu Sans;-inkscape-font-specification:DejaVuSans">3.0</tspan></text>
<g
         id="g3333"><g
           clip-path="url(#clipPath3337)"
           id="g3335"><path
             inkscape:connector-curvature="0"
             id="path3341"
             style="fill:none;stroke:#1f77b4;stroke-width:1.5;stroke-linecap:square;stroke-linejoin:round;stroke-miterlimit:10;stroke-opacity:1;stroke-dasharray:none"
             d="m 73.832727,128.8428 1.036755,-6.24981 1.377906,-6.9279 1.656691,-7.16856 1.87563,-7.12869 2.094764,-7.097858 2.330618,-7.115907 2.585556,-7.163464 2.651986,-6.701803 2.702939,-6.227629 2.482323,-5.165161 2.073334,-3.834016 1.783474,-2.855317 1.463542,-1.957167 1.259865,-1.347508 1.15136,-0.919062 1.05854,-0.559559 0.97635,-0.266058 0.96398,-0.0303 1.01442,0.204757 1.05674,0.449211 1.20002,0.766557 1.34443,1.132274 1.60625,1.659149 1.91495,2.319194 2.12719,2.935281 0.40248,0.61629 0,0" /></g></g><g
         id="g3343"><g
           clip-path="url(#clipPath3347)"
           id="g3345"><path
             inkscape:connector-curvature="0"
             id="path3351"
             style="fill:none;stroke:#ff7f0e;stroke-width:1.5;stroke-linecap:butt;stroke-linejoin:round;stroke-miterlimit:10;stroke-opacity:1;stroke-dasharray:1.5, 2.475;stroke-dashoffset:0"
             d="m 73.832727,128.8428 1.036755,-6.24981 1.377906,-6.9279 1.656691,-7.16856 1.87563,-7.12869 2.094764,-7.097858 2.330618,-7.115907 2.585556,-7.163464 2.651986,-6.701803 2.702939,-6.227629 2.482323,-5.165161 2.073334,-3.834016 1.783474,-2.855317 1.463542,-1.957167 1.259865,-1.347508 1.15136,-0.919062 1.05854,-0.559559 0.97635,-0.266058 0.96398,-0.0303 1.01442,0.204757 1.05674,0.449211 1.20002,0.766557 1.34443,1.132274 1.60625,1.659149 1.91495,2.319194 2.12719,2.935281 0.40248,0.616291 0,0" /></g></g><g
         id="g3353"><g
           clip-path="url(#clipPath3357)"
           id="g3355"><path
             inkscape:connector-curvature="0"
             id="path3361"
             style="fill:none;stroke:#2ca02c;stroke-width:1.5;stroke-linecap:square;stroke-linejoin:round;stroke-miterlimit:10;stroke-opacity:1;stroke-dasharray:none"
             d="m 314.10309,292.032 1.43432,-8.90502 1.74976,-9.45568 2.04518,-9.83729 2.31049,-10.02753 2.5341,-10.02228 2.85488,-10.35582 2.99044,-10.01299 3.22754,-10.03956 3.41562,-9.91388 3.73061,-10.12792 3.79025,-9.6384 3.77028,-8.98986 3.68086,-8.21084 3.36642,-6.9909 3.04683,-5.84555 2.74229,-4.8027 2.46369,-3.87467 2.21476,-3.06365 1.85411,-2.21262 1.8027,-1.80603 1.62648,-1.31134 1.46552,-0.90751 1.44617,-0.63245 1.43059,-0.36602 1.28898,-0.1111 1.40569,0.10808 1.3915,0.3315 1.49749,0.59001 1.58958,0.86903 1.77558,1.23611 1.90959,1.60424 2.16394,2.114 2.48397,2.75374 2.76921,3.41401 3.03463,4.10136 2.08013,3.07341 0,0" /></g></g><g
         id="g3363"><path
           inkscape:connector-curvature="0"
           id="path3365"
           style="fill:none;stroke:#000000;stroke-width:0.80000001;stroke-linecap:square;stroke-linejoin:miter;stroke-miterlimit:10;stroke-opacity:1;stroke-dasharray:none"
           d="m 57.6,38.016 0,266.112" /><path
           inkscape:connector-curvature="0"
           id="path3367"
           style="fill:none;stroke:#000000;stroke-width:0.80000001;stroke-linecap:square;stroke-linejoin:miter;stroke-miterlimit:10;stroke-opacity:1;stroke-dasharray:none"
           d="m 414.72,38.016 0,266.112" /><path
           inkscape:connector-curvature="0"
           id="path3369"
           style="fill:none;stroke:#000000;stroke-width:0.80000001;stroke-linecap:square;stroke-linejoin:miter;stroke-miterlimit:10;stroke-opacity:1;stroke-dasharray:none"
           d="m 57.6,38.016 357.12,0" /><path
           inkscape:connector-curvature="0"
           id="path3371"
           style="fill:none;stroke:#000000;stroke-width:0.80000001;stroke-linecap:square;stroke-linejoin:miter;stroke-miterlimit:10;stroke-opacity:1;stroke-dasharray:none"
           d="m 57.6,304.128 357.12,0" /></g></g><g
       transform="translate(361.02012,-23.280648)"
       id="g3587"><path
         inkscape:connector-curvature="0"
         id="path3123"
         style="fill:#000000;fill-opacity:1;fill-rule:nonzero;stroke:#000000;stroke-width:0.80000001;stroke-linecap:butt;stroke-linejoin:round;stroke-miterlimit:10;stroke-opacity:1;stroke-dasharray:none"
         d="m 61.191581,38.016 0,-3.5" /><text
         id="text3125"
         transform="matrix(1,0,0,-1,50.058768,23.42225)"><tspan
           id="tspan3127"
           sodipodi:role="line"
           y="0"
           x="0 6.3600001 9.54 15.9"
           style="font-size:10px;font-variant:normal;font-weight:normal;writing-mode:lr-tb;fill:#000000;fill-opacity:1;fill-rule:nonzero;stroke:none;font-family:DejaVu Sans;-inkscape-font-specification:DejaVuSans">0.75</tspan></text>
<path
         inkscape:connector-curvature="0"
         id="path3129"
         style="fill:#000000;fill-opacity:1;fill-rule:nonzero;stroke:#000000;stroke-width:0.80000001;stroke-linecap:butt;stroke-linejoin:round;stroke-miterlimit:10;stroke-opacity:1;stroke-dasharray:none"
         d="m 108.42817,38.016 0,-3.5" /><text
         id="text3131"
         transform="matrix(1,0,0,-1,97.29536,23.42225)"><tspan
           id="tspan3133"
           sodipodi:role="line"
           y="0"
           x="0 6.3600001 9.54 15.9"
           style="font-size:10px;font-variant:normal;font-weight:normal;writing-mode:lr-tb;fill:#000000;fill-opacity:1;fill-rule:nonzero;stroke:none;font-family:DejaVu Sans;-inkscape-font-specification:DejaVuSans">1.00</tspan></text>
<path
         inkscape:connector-curvature="0"
         id="path3135"
         style="fill:#000000;fill-opacity:1;fill-rule:nonzero;stroke:#000000;stroke-width:0.80000001;stroke-linecap:butt;stroke-linejoin:round;stroke-miterlimit:10;stroke-opacity:1;stroke-dasharray:none"
         d="m 155.66476,38.016 0,-3.5" /><text
         id="text3137"
         transform="matrix(1,0,0,-1,144.53195,23.42225)"><tspan
           id="tspan3139"
           sodipodi:role="line"
           y="0"
           x="0 6.3600001 9.54 15.9"
           style="font-size:10px;font-variant:normal;font-weight:normal;writing-mode:lr-tb;fill:#000000;fill-opacity:1;fill-rule:nonzero;stroke:none;font-family:DejaVu Sans;-inkscape-font-specification:DejaVuSans">1.25</tspan></text>
<path
         inkscape:connector-curvature="0"
         id="path3141"
         style="fill:#000000;fill-opacity:1;fill-rule:nonzero;stroke:#000000;stroke-width:0.80000001;stroke-linecap:butt;stroke-linejoin:round;stroke-miterlimit:10;stroke-opacity:1;stroke-dasharray:none"
         d="m 202.90136,38.016 0,-3.5" /><text
         id="text3143"
         transform="matrix(1,0,0,-1,191.76854,23.42225)"><tspan
           id="tspan3145"
           sodipodi:role="line"
           y="0"
           x="0 6.3600001 9.54 15.9"
           style="font-size:10px;font-variant:normal;font-weight:normal;writing-mode:lr-tb;fill:#000000;fill-opacity:1;fill-rule:nonzero;stroke:none;font-family:DejaVu Sans;-inkscape-font-specification:DejaVuSans">1.50</tspan></text>
<path
         inkscape:connector-curvature="0"
         id="path3147"
         style="fill:#000000;fill-opacity:1;fill-rule:nonzero;stroke:#000000;stroke-width:0.80000001;stroke-linecap:butt;stroke-linejoin:round;stroke-miterlimit:10;stroke-opacity:1;stroke-dasharray:none"
         d="m 250.13795,38.016 0,-3.5" /><text
         id="text3149"
         transform="matrix(1,0,0,-1,239.00513,23.42225)"><tspan
           id="tspan3151"
           sodipodi:role="line"
           y="0"
           x="0 6.3600001 9.54 15.9"
           style="font-size:10px;font-variant:normal;font-weight:normal;writing-mode:lr-tb;fill:#000000;fill-opacity:1;fill-rule:nonzero;stroke:none;font-family:DejaVu Sans;-inkscape-font-specification:DejaVuSans">1.75</tspan></text>
<path
         inkscape:connector-curvature="0"
         id="path3153"
         style="fill:#000000;fill-opacity:1;fill-rule:nonzero;stroke:#000000;stroke-width:0.80000001;stroke-linecap:butt;stroke-linejoin:round;stroke-miterlimit:10;stroke-opacity:1;stroke-dasharray:none"
         d="m 297.37454,38.016 0,-3.5" /><text
         id="text3155"
         transform="matrix(1,0,0,-1,286.24173,23.42225)"><tspan
           id="tspan3157"
           sodipodi:role="line"
           y="0"
           x="0 6.3600001 9.54 15.9"
           style="font-size:10px;font-variant:normal;font-weight:normal;writing-mode:lr-tb;fill:#000000;fill-opacity:1;fill-rule:nonzero;stroke:none;font-family:DejaVu Sans;-inkscape-font-specification:DejaVuSans">2.00</tspan></text>
<path
         inkscape:connector-curvature="0"
         id="path3159"
         style="fill:#000000;fill-opacity:1;fill-rule:nonzero;stroke:#000000;stroke-width:0.80000001;stroke-linecap:butt;stroke-linejoin:round;stroke-miterlimit:10;stroke-opacity:1;stroke-dasharray:none"
         d="m 344.61113,38.016 0,-3.5" /><text
         id="text3161"
         transform="matrix(1,0,0,-1,333.47832,23.42225)"><tspan
           id="tspan3163"
           sodipodi:role="line"
           y="0"
           x="0 6.3600001 9.54 15.9"
           style="font-size:10px;font-variant:normal;font-weight:normal;writing-mode:lr-tb;fill:#000000;fill-opacity:1;fill-rule:nonzero;stroke:none;font-family:DejaVu Sans;-inkscape-font-specification:DejaVuSans">2.25</tspan></text>
<path
         inkscape:connector-curvature="0"
         id="path3165"
         style="fill:#000000;fill-opacity:1;fill-rule:nonzero;stroke:#000000;stroke-width:0.80000001;stroke-linecap:butt;stroke-linejoin:round;stroke-miterlimit:10;stroke-opacity:1;stroke-dasharray:none"
         d="m 391.84772,38.016 0,-3.5" /><text
         id="text3167"
         transform="matrix(1,0,0,-1,380.71491,23.42225)"><tspan
           id="tspan3169"
           sodipodi:role="line"
           y="0"
           x="0 6.3600001 9.54 15.9"
           style="font-size:10px;font-variant:normal;font-weight:normal;writing-mode:lr-tb;fill:#000000;fill-opacity:1;fill-rule:nonzero;stroke:none;font-family:DejaVu Sans;-inkscape-font-specification:DejaVuSans">2.50</tspan></text>
<path
         inkscape:connector-curvature="0"
         id="path3171"
         style="fill:#000000;fill-opacity:1;fill-rule:nonzero;stroke:#000000;stroke-width:0.80000001;stroke-linecap:butt;stroke-linejoin:round;stroke-miterlimit:10;stroke-opacity:1;stroke-dasharray:none"
         d="m 57.6,43.836792 -3.5,0" /><text
         id="text3173"
         transform="matrix(1,0,0,-1,44.240625,40.039917)"><tspan
           id="tspan3175"
           y="0"
           x="0"
           style="font-size:10px;font-variant:normal;font-weight:normal;writing-mode:lr-tb;fill:#000000;fill-opacity:1;fill-rule:nonzero;stroke:none;font-family:DejaVu Sans;-inkscape-font-specification:DejaVuSans">4</tspan></text>
<path
         inkscape:connector-curvature="0"
         id="path3177"
         style="fill:#000000;fill-opacity:1;fill-rule:nonzero;stroke:#000000;stroke-width:0.80000001;stroke-linecap:butt;stroke-linejoin:round;stroke-miterlimit:10;stroke-opacity:1;stroke-dasharray:none"
         d="m 57.6,80.937092 -3.5,0" /><text
         id="text3179"
         transform="matrix(1,0,0,-1,44.240625,77.140217)"><tspan
           id="tspan3181"
           y="0"
           x="0"
           style="font-size:10px;font-variant:normal;font-weight:normal;writing-mode:lr-tb;fill:#000000;fill-opacity:1;fill-rule:nonzero;stroke:none;font-family:DejaVu Sans;-inkscape-font-specification:DejaVuSans">5</tspan></text>
<path
         inkscape:connector-curvature="0"
         id="path3183"
         style="fill:#000000;fill-opacity:1;fill-rule:nonzero;stroke:#000000;stroke-width:0.80000001;stroke-linecap:butt;stroke-linejoin:round;stroke-miterlimit:10;stroke-opacity:1;stroke-dasharray:none"
         d="m 57.6,118.03739 -3.5,0" /><text
         id="text3185"
         transform="matrix(1,0,0,-1,44.240625,114.24052)"><tspan
           id="tspan3187"
           y="0"
           x="0"
           style="font-size:10px;font-variant:normal;font-weight:normal;writing-mode:lr-tb;fill:#000000;fill-opacity:1;fill-rule:nonzero;stroke:none;font-family:DejaVu Sans;-inkscape-font-specification:DejaVuSans">6</tspan></text>
<path
         inkscape:connector-curvature="0"
         id="path3189"
         style="fill:#000000;fill-opacity:1;fill-rule:nonzero;stroke:#000000;stroke-width:0.80000001;stroke-linecap:butt;stroke-linejoin:round;stroke-miterlimit:10;stroke-opacity:1;stroke-dasharray:none"
         d="m 57.6,155.13769 -3.5,0" /><text
         id="text3191"
         transform="matrix(1,0,0,-1,44.240625,151.34082)"><tspan
           id="tspan3193"
           y="0"
           x="0"
           style="font-size:10px;font-variant:normal;font-weight:normal;writing-mode:lr-tb;fill:#000000;fill-opacity:1;fill-rule:nonzero;stroke:none;font-family:DejaVu Sans;-inkscape-font-specification:DejaVuSans">7</tspan></text>
<path
         inkscape:connector-curvature="0"
         id="path3195"
         style="fill:#000000;fill-opacity:1;fill-rule:nonzero;stroke:#000000;stroke-width:0.80000001;stroke-linecap:butt;stroke-linejoin:round;stroke-miterlimit:10;stroke-opacity:1;stroke-dasharray:none"
         d="m 57.6,192.23799 -3.5,0" /><text
         id="text3197"
         transform="matrix(1,0,0,-1,44.240625,188.44112)"><tspan
           id="tspan3199"
           y="0"
           x="0"
           style="font-size:10px;font-variant:normal;font-weight:normal;writing-mode:lr-tb;fill:#000000;fill-opacity:1;fill-rule:nonzero;stroke:none;font-family:DejaVu Sans;-inkscape-font-specification:DejaVuSans">8</tspan></text>
<path
         inkscape:connector-curvature="0"
         id="path3201"
         style="fill:#000000;fill-opacity:1;fill-rule:nonzero;stroke:#000000;stroke-width:0.80000001;stroke-linecap:butt;stroke-linejoin:round;stroke-miterlimit:10;stroke-opacity:1;stroke-dasharray:none"
         d="m 57.6,229.33829 -3.5,0" /><text
         id="text3203"
         transform="matrix(1,0,0,-1,44.240625,225.54142)"><tspan
           id="tspan3205"
           y="0"
           x="0"
           style="font-size:10px;font-variant:normal;font-weight:normal;writing-mode:lr-tb;fill:#000000;fill-opacity:1;fill-rule:nonzero;stroke:none;font-family:DejaVu Sans;-inkscape-font-specification:DejaVuSans">9</tspan></text>
<path
         inkscape:connector-curvature="0"
         id="path3207"
         style="fill:#000000;fill-opacity:1;fill-rule:nonzero;stroke:#000000;stroke-width:0.80000001;stroke-linecap:butt;stroke-linejoin:round;stroke-miterlimit:10;stroke-opacity:1;stroke-dasharray:none"
         d="m 57.6,266.43859 -3.5,0" /><text
         id="text3209"
         transform="matrix(1,0,0,-1,37.88125,262.64172)"><tspan
           id="tspan3211"
           sodipodi:role="line"
           y="0"
           x="0 6.3600001"
           style="font-size:10px;font-variant:normal;font-weight:normal;writing-mode:lr-tb;fill:#000000;fill-opacity:1;fill-rule:nonzero;stroke:none;font-family:DejaVu Sans;-inkscape-font-specification:DejaVuSans">10</tspan></text>
<path
         inkscape:connector-curvature="0"
         id="path3213"
         style="fill:#000000;fill-opacity:1;fill-rule:nonzero;stroke:#000000;stroke-width:0.80000001;stroke-linecap:butt;stroke-linejoin:round;stroke-miterlimit:10;stroke-opacity:1;stroke-dasharray:none"
         d="m 57.6,303.53889 -3.5,0" /><text
         id="text3215"
         transform="matrix(1,0,0,-1,37.88125,299.74202)"><tspan
           id="tspan3217"
           sodipodi:role="line"
           y="0"
           x="0 6.3600001"
           style="font-size:10px;font-variant:normal;font-weight:normal;writing-mode:lr-tb;fill:#000000;fill-opacity:1;fill-rule:nonzero;stroke:none;font-family:DejaVu Sans;-inkscape-font-specification:DejaVuSans">11</tspan></text>
<g
         id="g3219"><g
           clip-path="url(#clipPath3223)"
           id="g3221"><path
             inkscape:connector-curvature="0"
             id="path3227"
             style="fill:none;stroke:#1f77b4;stroke-width:1.5;stroke-linecap:square;stroke-linejoin:round;stroke-miterlimit:10;stroke-opacity:1;stroke-dasharray:none"
             d="m 158.98454,93.159657 -8.96841,0.360439 -10.51646,0.191248 -12.06889,-0.0099 -12.83269,-0.234484 -11.18818,-0.414982 -8.41069,-0.520652 -6.065794,-0.588693 -4.281278,-0.62368 -3.166729,-0.670622 -2.390671,-0.726155 -1.74902,-0.757174 -1.235766,-0.757212 -0.906045,-0.791833 -0.67824,-0.889447 -0.420335,-0.907655 -0.227561,-1.00124 -0.02988,-1.203421 0.193907,-1.32166 0.453658,-1.563665 0.81791,-1.964293 1.264072,-2.403187 1.849288,-2.992507 2.53479,-3.658865 3.576802,-4.751808 5.047407,-6.310994 7.118155,-8.535249 0,0" /></g></g><g
         id="g3229"><g
           clip-path="url(#clipPath3233)"
           id="g3231"><path
             inkscape:connector-curvature="0"
             id="path3237"
             style="fill:none;stroke:#ff7f0e;stroke-width:1.5;stroke-linecap:butt;stroke-linejoin:round;stroke-miterlimit:10;stroke-opacity:1;stroke-dasharray:1.5, 2.475;stroke-dashoffset:0"
             d="m 158.98454,93.159657 -8.96841,0.360439 -10.51646,0.191248 -12.06889,-0.0099 -12.83269,-0.234484 -11.18818,-0.414982 -8.41069,-0.520652 -6.065794,-0.588693 -4.281278,-0.62368 -3.166729,-0.670622 -2.390671,-0.726155 -1.74902,-0.757174 -1.235766,-0.757212 -0.906045,-0.791833 -0.67824,-0.889447 -0.420335,-0.907655 -0.227561,-1.00124 -0.02988,-1.203421 0.193907,-1.32166 0.453658,-1.563665 0.81791,-1.964293 1.264072,-2.403187 1.849288,-2.992507 2.53479,-3.658865 3.576802,-4.751808 5.047407,-6.310994 7.118157,-8.535251 0,0" /></g></g><g
         id="g3239"><g
           clip-path="url(#clipPath3243)"
           id="g3241"><path
             inkscape:connector-curvature="0"
             id="path3247"
             style="fill:none;stroke:#2ca02c;stroke-width:1.5;stroke-linecap:square;stroke-linejoin:round;stroke-miterlimit:10;stroke-opacity:1;stroke-dasharray:none"
             d="m 398.48727,290.88372 -12.36895,0.54202 -13.97575,0.38349 -15.4386,0.19852 -17.24149,-0.007 -18.12572,-0.23359 -17.35533,-0.43794 -15.56715,-0.60883 -12.50618,-0.70342 -10.07727,-0.78628 -7.86209,-0.83122 -6.31258,-0.88691 -4.96085,-0.91141 -4.11192,-0.97747 -3.35776,-1.02995 -2.6991,-1.06492 -2.13323,-1.07898 -1.65518,-1.06952 -1.40162,-1.17008 -1.03126,-1.13015 -0.82806,-1.21988 -0.62415,-1.31405 -0.42011,-1.41221 -0.21662,-1.51367 -0.0146,-1.61757 0.22186,-1.9455 0.46857,-2.07828 0.79978,-2.46114 1.07823,-2.61256 1.48257,-3.03178 2.10513,-3.76063 2.61621,-4.20192 3.30307,-4.88623 4.3571,-6.02823 5.58498,-7.31678 7.1263,-8.94271 9.28705,-11.27577 7.2934,-8.67251 0,0" /></g></g><g
         id="g3249"><path
           inkscape:connector-curvature="0"
           id="path3251"
           style="fill:none;stroke:#000000;stroke-width:0.80000001;stroke-linecap:square;stroke-linejoin:miter;stroke-miterlimit:10;stroke-opacity:1;stroke-dasharray:none"
           d="m 57.6,38.016 0,266.112" /><path
           inkscape:connector-curvature="0"
           id="path3253"
           style="fill:none;stroke:#000000;stroke-width:0.80000001;stroke-linecap:square;stroke-linejoin:miter;stroke-miterlimit:10;stroke-opacity:1;stroke-dasharray:none"
           d="m 414.72,38.016 0,266.112" /><path
           inkscape:connector-curvature="0"
           id="path3255"
           style="fill:none;stroke:#000000;stroke-width:0.80000001;stroke-linecap:square;stroke-linejoin:miter;stroke-miterlimit:10;stroke-opacity:1;stroke-dasharray:none"
           d="m 57.6,38.016 357.12,0" /><path
           inkscape:connector-curvature="0"
           id="path3257"
           style="fill:none;stroke:#000000;stroke-width:0.80000001;stroke-linecap:square;stroke-linejoin:miter;stroke-miterlimit:10;stroke-opacity:1;stroke-dasharray:none"
           d="m 57.6,304.128 357.12,0" /></g></g></g></svg>