<?xml version="1.0" encoding="UTF-8" standalone="no"?>
<!-- Created with Inkscape (http://www.inkscape.org/) -->

<svg
   xmlns:dc="http://purl.org/dc/elements/1.1/"
   xmlns:cc="http://creativecommons.org/ns#"
   xmlns:rdf="http://www.w3.org/1999/02/22-rdf-syntax-ns#"
   xmlns:svg="http://www.w3.org/2000/svg"
   xmlns="http://www.w3.org/2000/svg"
   xmlns:sodipodi="http://sodipodi.sourceforge.net/DTD/sodipodi-0.dtd"
   xmlns:inkscape="http://www.inkscape.org/namespaces/inkscape"
   version="1.1"
   id="svg2"
   xml:space="preserve"
   width="736.17529"
   height="294.42368"
   viewBox="0 0 736.17529 294.42367"
   sodipodi:docname="chunks.svg"
   inkscape:version="0.92.3 (2405546, 2018-03-11)"><metadata
     id="metadata8"><rdf:RDF><cc:Work
         rdf:about=""><dc:format>image/svg+xml</dc:format><dc:type
           rdf:resource="http://purl.org/dc/dcmitype/StillImage" /><dc:title></dc:title></cc:Work></rdf:RDF></metadata><defs
     id="defs6"><clipPath
       clipPathUnits="userSpaceOnUse"
       id="clipPath100"><path
         d="M 84.96,29.3832 H 611.712 V 235.0656 H 84.96 Z"
         id="path98"
         inkscape:connector-curvature="0" /></clipPath><clipPath
       clipPathUnits="userSpaceOnUse"
       id="clipPath110"><path
         d="M 84.96,29.3832 H 611.712 V 235.0656 H 84.96 Z"
         id="path108"
         inkscape:connector-curvature="0" /></clipPath><clipPath
       clipPathUnits="userSpaceOnUse"
       id="clipPath120"><path
         d="M 84.96,29.3832 H 611.712 V 235.0656 H 84.96 Z"
         id="path118"
         inkscape:connector-curvature="0" /></clipPath><clipPath
       clipPathUnits="userSpaceOnUse"
       id="clipPath130"><path
         d="M 84.96,29.3832 H 611.712 V 235.0656 H 84.96 Z"
         id="path128"
         inkscape:connector-curvature="0" /></clipPath><clipPath
       clipPathUnits="userSpaceOnUse"
       id="clipPath140"><path
         d="M 84.96,29.3832 H 611.712 V 235.0656 H 84.96 Z"
         id="path138"
         inkscape:connector-curvature="0" /></clipPath></defs><sodipodi:namedview
     pagecolor="#ffffff"
     bordercolor="#666666"
     borderopacity="1"
     objecttolerance="10"
     gridtolerance="10"
     guidetolerance="10"
     inkscape:pageopacity="0"
     inkscape:pageshadow="2"
     inkscape:window-width="1920"
     inkscape:window-height="1025"
     id="namedview4"
     showgrid="false"
     fit-margin-top="0"
     fit-margin-left="0"
     fit-margin-right="0"
     fit-margin-bottom="0"
     inkscape:zoom="1.5095339"
     inkscape:cx="266.81896"
     inkscape:cy="144.3528"
     inkscape:window-x="0"
     inkscape:window-y="27"
     inkscape:window-maximized="1"
     inkscape:current-layer="g10" /><g
     id="g10"
     inkscape:groupmode="layer"
     inkscape:label="chunks"
     transform="matrix(1.3333333,0,0,-1.3333333,-79.974008,313.95413)"><path
       d="m 108.90327,29.3832 v -3.5"
       style="fill:#000000;fill-opacity:1;fill-rule:nonzero;stroke:#000000;stroke-width:0.80000001;stroke-linecap:butt;stroke-linejoin:round;stroke-miterlimit:10;stroke-dasharray:none;stroke-opacity:1"
       id="path16"
       inkscape:connector-curvature="0" /><text
       transform="matrix(1,0,0,-1,97.77046,14.78945)"
       style="font-variant:normal;font-weight:normal;font-size:10px;font-family:'DejaVu Sans';-inkscape-font-specification:DejaVuSans;writing-mode:lr-tb;fill:#000000;fill-opacity:1;fill-rule:nonzero;stroke:none"
       id="text20"><tspan
         x="0 6.3600001 9.54 15.9"
         y="0"
         sodipodi:role="line"
         id="tspan18">0.00</tspan></text>
<path
       d="m 204.67636,29.3832 v -3.5"
       style="fill:#000000;fill-opacity:1;fill-rule:nonzero;stroke:#000000;stroke-width:0.80000001;stroke-linecap:butt;stroke-linejoin:round;stroke-miterlimit:10;stroke-dasharray:none;stroke-opacity:1"
       id="path22"
       inkscape:connector-curvature="0" /><text
       transform="matrix(1,0,0,-1,193.54355,14.78945)"
       style="font-variant:normal;font-weight:normal;font-size:10px;font-family:'DejaVu Sans';-inkscape-font-specification:DejaVuSans;writing-mode:lr-tb;fill:#000000;fill-opacity:1;fill-rule:nonzero;stroke:none"
       id="text26"><tspan
         x="0 6.3600001 9.54 15.9"
         y="0"
         sodipodi:role="line"
         id="tspan24">0.01</tspan></text>
<path
       d="m 300.44945,29.3832 v -3.5"
       style="fill:#000000;fill-opacity:1;fill-rule:nonzero;stroke:#000000;stroke-width:0.80000001;stroke-linecap:butt;stroke-linejoin:round;stroke-miterlimit:10;stroke-dasharray:none;stroke-opacity:1"
       id="path28"
       inkscape:connector-curvature="0" /><text
       transform="matrix(1,0,0,-1,289.31664,14.78945)"
       style="font-variant:normal;font-weight:normal;font-size:10px;font-family:'DejaVu Sans';-inkscape-font-specification:DejaVuSans;writing-mode:lr-tb;fill:#000000;fill-opacity:1;fill-rule:nonzero;stroke:none"
       id="text32"><tspan
         x="0 6.3600001 9.54 15.9"
         y="0"
         sodipodi:role="line"
         id="tspan30">0.02</tspan></text>
<path
       d="m 396.22254,29.3832 v -3.5"
       style="fill:#000000;fill-opacity:1;fill-rule:nonzero;stroke:#000000;stroke-width:0.80000001;stroke-linecap:butt;stroke-linejoin:round;stroke-miterlimit:10;stroke-dasharray:none;stroke-opacity:1"
       id="path34"
       inkscape:connector-curvature="0" /><text
       transform="matrix(1,0,0,-1,385.08973,14.78945)"
       style="font-variant:normal;font-weight:normal;font-size:10px;font-family:'DejaVu Sans';-inkscape-font-specification:DejaVuSans;writing-mode:lr-tb;fill:#000000;fill-opacity:1;fill-rule:nonzero;stroke:none"
       id="text38"><tspan
         x="0 6.3600001 9.54 15.9"
         y="0"
         sodipodi:role="line"
         id="tspan36">0.03</tspan></text>
<path
       d="m 491.99564,29.3832 v -3.5"
       style="fill:#000000;fill-opacity:1;fill-rule:nonzero;stroke:#000000;stroke-width:0.80000001;stroke-linecap:butt;stroke-linejoin:round;stroke-miterlimit:10;stroke-dasharray:none;stroke-opacity:1"
       id="path40"
       inkscape:connector-curvature="0" /><text
       transform="matrix(1,0,0,-1,480.86282,14.78945)"
       style="font-variant:normal;font-weight:normal;font-size:10px;font-family:'DejaVu Sans';-inkscape-font-specification:DejaVuSans;writing-mode:lr-tb;fill:#000000;fill-opacity:1;fill-rule:nonzero;stroke:none"
       id="text44"><tspan
         x="0 6.3600001 9.54 15.9"
         y="0"
         sodipodi:role="line"
         id="tspan42">0.04</tspan></text>
<path
       d="m 587.76873,29.3832 v -3.5"
       style="fill:#000000;fill-opacity:1;fill-rule:nonzero;stroke:#000000;stroke-width:0.80000001;stroke-linecap:butt;stroke-linejoin:round;stroke-miterlimit:10;stroke-dasharray:none;stroke-opacity:1"
       id="path46"
       inkscape:connector-curvature="0" /><text
       transform="matrix(1,0,0,-1,576.63591,14.78945)"
       style="font-variant:normal;font-weight:normal;font-size:10px;font-family:'DejaVu Sans';-inkscape-font-specification:DejaVuSans;writing-mode:lr-tb;fill:#000000;fill-opacity:1;fill-rule:nonzero;stroke:none"
       id="text50"><tspan
         x="0 6.3600001 9.54 15.9"
         y="0"
         sodipodi:role="line"
         id="tspan48">0.05</tspan></text>
<path
       d="m 84.96,38.891657 h -3.5"
       style="fill:#000000;fill-opacity:1;fill-rule:nonzero;stroke:#000000;stroke-width:0.80000001;stroke-linecap:butt;stroke-linejoin:round;stroke-miterlimit:10;stroke-dasharray:none;stroke-opacity:1"
       id="path52"
       inkscape:connector-curvature="0" /><text
       transform="matrix(1,0,0,-1,65.24125,35.094782)"
       style="font-variant:normal;font-weight:normal;font-size:10px;font-family:'DejaVu Sans';-inkscape-font-specification:DejaVuSans;writing-mode:lr-tb;fill:#000000;fill-opacity:1;fill-rule:nonzero;stroke:none"
       id="text56"><tspan
         x="0 6.3600001"
         y="0"
         sodipodi:role="line"
         id="tspan54">40</tspan></text>
<path
       d="m 84.96,70.006919 h -3.5"
       style="fill:#000000;fill-opacity:1;fill-rule:nonzero;stroke:#000000;stroke-width:0.80000001;stroke-linecap:butt;stroke-linejoin:round;stroke-miterlimit:10;stroke-dasharray:none;stroke-opacity:1"
       id="path58"
       inkscape:connector-curvature="0" /><text
       transform="matrix(1,0,0,-1,65.24125,66.210044)"
       style="font-variant:normal;font-weight:normal;font-size:10px;font-family:'DejaVu Sans';-inkscape-font-specification:DejaVuSans;writing-mode:lr-tb;fill:#000000;fill-opacity:1;fill-rule:nonzero;stroke:none"
       id="text62"><tspan
         x="0 6.3600001"
         y="0"
         sodipodi:role="line"
         id="tspan60">50</tspan></text>
<path
       d="m 84.96,101.12218 h -3.5"
       style="fill:#000000;fill-opacity:1;fill-rule:nonzero;stroke:#000000;stroke-width:0.80000001;stroke-linecap:butt;stroke-linejoin:round;stroke-miterlimit:10;stroke-dasharray:none;stroke-opacity:1"
       id="path64"
       inkscape:connector-curvature="0" /><text
       transform="matrix(1,0,0,-1,65.24125,97.325305)"
       style="font-variant:normal;font-weight:normal;font-size:10px;font-family:'DejaVu Sans';-inkscape-font-specification:DejaVuSans;writing-mode:lr-tb;fill:#000000;fill-opacity:1;fill-rule:nonzero;stroke:none"
       id="text68"><tspan
         x="0 6.3600001"
         y="0"
         sodipodi:role="line"
         id="tspan66">60</tspan></text>
<path
       d="m 84.96,132.23744 h -3.5"
       style="fill:#000000;fill-opacity:1;fill-rule:nonzero;stroke:#000000;stroke-width:0.80000001;stroke-linecap:butt;stroke-linejoin:round;stroke-miterlimit:10;stroke-dasharray:none;stroke-opacity:1"
       id="path70"
       inkscape:connector-curvature="0" /><text
       transform="matrix(1,0,0,-1,65.24125,128.44057)"
       style="font-variant:normal;font-weight:normal;font-size:10px;font-family:'DejaVu Sans';-inkscape-font-specification:DejaVuSans;writing-mode:lr-tb;fill:#000000;fill-opacity:1;fill-rule:nonzero;stroke:none"
       id="text74"><tspan
         x="0 6.3600001"
         y="0"
         sodipodi:role="line"
         id="tspan72">70</tspan></text>
<path
       d="m 84.96,163.3527 h -3.5"
       style="fill:#000000;fill-opacity:1;fill-rule:nonzero;stroke:#000000;stroke-width:0.80000001;stroke-linecap:butt;stroke-linejoin:round;stroke-miterlimit:10;stroke-dasharray:none;stroke-opacity:1"
       id="path76"
       inkscape:connector-curvature="0" /><text
       transform="matrix(1,0,0,-1,65.24125,159.55583)"
       style="font-variant:normal;font-weight:normal;font-size:10px;font-family:'DejaVu Sans';-inkscape-font-specification:DejaVuSans;writing-mode:lr-tb;fill:#000000;fill-opacity:1;fill-rule:nonzero;stroke:none"
       id="text80"><tspan
         x="0 6.3600001"
         y="0"
         sodipodi:role="line"
         id="tspan78">80</tspan></text>
<path
       d="m 84.96,194.46796 h -3.5"
       style="fill:#000000;fill-opacity:1;fill-rule:nonzero;stroke:#000000;stroke-width:0.80000001;stroke-linecap:butt;stroke-linejoin:round;stroke-miterlimit:10;stroke-dasharray:none;stroke-opacity:1"
       id="path82"
       inkscape:connector-curvature="0" /><text
       transform="matrix(1,0,0,-1,65.24125,190.67109)"
       style="font-variant:normal;font-weight:normal;font-size:10px;font-family:'DejaVu Sans';-inkscape-font-specification:DejaVuSans;writing-mode:lr-tb;fill:#000000;fill-opacity:1;fill-rule:nonzero;stroke:none"
       id="text86"><tspan
         x="0 6.3600001"
         y="0"
         sodipodi:role="line"
         id="tspan84">90</tspan></text>
<path
       d="m 84.96,225.58323 h -3.5"
       style="fill:#000000;fill-opacity:1;fill-rule:nonzero;stroke:#000000;stroke-width:0.80000001;stroke-linecap:butt;stroke-linejoin:round;stroke-miterlimit:10;stroke-dasharray:none;stroke-opacity:1"
       id="path88"
       inkscape:connector-curvature="0" /><text
       transform="matrix(1,0,0,-1,58.881875,221.78635)"
       style="font-variant:normal;font-weight:normal;font-size:10px;font-family:'DejaVu Sans';-inkscape-font-specification:DejaVuSans;writing-mode:lr-tb;fill:#000000;fill-opacity:1;fill-rule:nonzero;stroke:none"
       id="text92"><tspan
         x="0 6.3600001 12.72"
         y="0"
         sodipodi:role="line"
         id="tspan90">100</tspan></text>
<g
       id="g94"><g
         id="g96"
         clip-path="url(#clipPath100)"><path
           d="m 108.90327,225.59428 2.39433,-0.86103 2.39433,-2.52983 2.39433,-4.04282 2.39432,-5.30922 2.39433,-6.25679 9.57731,-27.01584 2.39432,-5.49133 2.39433,-4.47111 2.39433,-3.34207 2.39433,-2.20509 2.39432,-1.15979 2.39433,-0.29699 2.39433,0.30792 4.78865,1.15131 2.39433,0.15528 2.39433,-0.56359 2.39432,-1.55954 2.39433,-2.76647 2.39433,-4.10387 2.39433,-5.48306 2.39432,-6.8139 2.39433,-8.01136 2.39433,-9.00136 4.78865,-19.87085 4.78866,-20.259652 2.39432,-9.496202 2.39433,-8.714874 2.39433,-7.724788 2.39433,-6.584207 2.39432,-5.353804 2.39433,-4.09178 2.39433,-2.849555 2.39433,-1.668399 2.39432,-0.577219 2.39433,0.40835 2.39433,1.285564 2.39433,2.062977 2.39432,2.757883 2.39433,3.393046 2.39433,3.993107 2.39432,4.58098 2.39433,5.174636 2.39433,5.784526 2.39433,6.411916 2.39432,7.048244 2.39433,7.675545 2.39433,8.267898 2.39432,8.793698 4.78866,18.72721 7.18298,28.50807 2.39433,8.83166 2.39433,8.16096 2.39432,7.31136 2.39433,6.31232 2.39433,5.20153 2.39432,4.02213 2.39433,2.81981 2.39433,1.63966 2.39433,0.52311 2.39432,-0.49459 2.39433,-1.38637 2.39433,-2.13459 2.39433,-2.73137 2.39432,-3.1782 4.78866,-7.15175 7.18298,-11.16357 4.78865,-7.00809 4.78866,-6.40735 2.39433,-2.94053 2.39432,-2.73863 2.39433,-2.50664 2.39433,-2.23459 2.39432,-1.91322 2.39433,-1.53578 2.39433,-1.09956 2.39433,-0.60709 2.39432,-0.0667 2.39433,0.50765 2.39433,1.09662 2.39433,1.67702 2.39432,2.22334 2.39433,2.70953 2.39433,3.11124 4.78865,6.99064 4.78866,7.17069 2.39433,3.32998 2.39432,3.00455 2.39433,2.58477 2.39433,2.09408 2.39432,1.5587 2.39433,1.00569 2.39433,0.46106 2.39433,-0.0521 2.39432,-0.51502 2.39433,-0.9142 2.39433,-1.24193 2.39432,-1.49629 4.78866,-3.48258 16.76029,-12.99053 4.78865,-3.3812 4.78866,-3.03025 2.39433,-1.30407 2.39432,-1.10676 2.39433,-0.86214 2.39433,-0.57061 2.39432,-0.23678 2.39433,0.1304 2.39433,0.51808 2.39433,0.91019 2.39432,1.28863 2.39433,1.6345 2.39433,1.92964 4.78865,4.46527 4.78866,4.70919 2.39432,2.2235 2.39433,2.02618 2.39433,1.76028 2.39433,1.4414 2.39432,1.08743 2.39433,0.71718 2.39433,0.349 2.39433,-5.2e-4 2.39432,-0.31777 2.39433,-0.59269 2.39433,-0.81941 2.39432,-0.99614 4.78866,-2.33557 21.54894,-11.25824 4.78866,-2.19294 2.39433,-0.9632 2.39433,-0.83079 2.39432,-0.66124 2.39433,-0.45427 2.39433,-0.21286 2.39432,0.0567 2.39433,0.3448 2.39433,0.63949 2.39432,0.92687 2.39433,1.19237 2.39433,1.42176 4.78865,3.32618 7.18299,5.23148 2.39432,1.54239 2.39433,1.34561 2.39433,1.1069 2.39433,0.83991 2.39432,0.55907 2.39433,0.27864 2.39433,0.0115 2.39432,-0.23147 2.39433,-0.4424 2.39433,-0.61646 4.78865,-1.6029 7.18299,-2.84268 7.18298,-2.90565 v 0"
           style="fill:none;stroke:#1f77b4;stroke-width:1.5;stroke-linecap:square;stroke-linejoin:round;stroke-miterlimit:10;stroke-dasharray:none;stroke-opacity:1"
           id="path102"
           inkscape:connector-curvature="0" /></g></g><g
       id="g104"><g
         id="g106"
         clip-path="url(#clipPath110)"><path
           d="m 108.90327,225.69513 2.39433,-22.47197 2.39433,-39.36641 2.39433,-13.20003 2.39432,12.76941 2.39433,7.22115 2.39433,-8.40793 2.39432,-5.44029 2.39433,6.68802 2.39433,5.75558 2.39432,-3.60021 2.39433,-4.05847 2.39433,1.90381 2.39433,0.97059 2.39432,-4.23123 2.39433,-2.00289 4.78866,10.24569 2.39432,-0.73165 2.39433,-3.05453 2.39433,-1.26711 2.39432,-2.09238 2.39433,-4.03873 2.39433,-0.32445 2.39433,6.45201 2.39432,7.24931 2.39433,1.5359 2.39433,-3.44325 2.39433,-5.4242 2.39432,-7.09243 2.39433,-6.2824 2.39433,1.49548 2.39432,12.1783 2.39433,15.69696 2.39433,8.63017 2.39433,-4.44058 2.39432,-19.73196 2.39433,-34.79465 2.39433,-42.432217 2.39433,-34.631963 2.39432,-13.092329 2.39433,11.683373 2.39433,31.054362 4.78865,81.086724 2.39433,24.80744 2.39433,3.90047 2.39432,-11.59712 2.39433,-16.35693 2.39433,-12.91328 2.39433,-4.79533 2.39432,5.30815 2.39433,12.14856 2.39433,10.61512 2.39432,2.52321 2.39433,-5.00916 2.39433,-7.92439 2.39433,-7.10613 2.39432,-3.45929 2.39433,2.64668 2.39433,7.71386 2.39433,7.22224 2.39432,1.85396 2.39433,-3.25617 2.39433,-5.24721 2.39432,-4.96899 2.39433,-2.78904 2.39433,1.60177 4.78865,11.00812 2.39433,1.27177 2.39433,-2.60072 4.78865,-7.84712 2.39433,-2.25578 2.39433,1.2516 4.78865,9.11721 2.39433,1.0745 2.39433,-2.10242 4.78865,-6.30758 2.39433,-1.88552 2.39433,1.03269 4.78865,7.74133 2.39433,0.83895 2.39432,-1.88683 4.78866,-5.46922 2.39433,-1.64771 2.39432,0.92237 4.78866,6.96337 2.39433,0.78981 2.39432,-1.65161 4.78866,-4.92939 2.39432,-1.6047 2.39433,0.67314 4.78866,6.10797 2.39433,0.74386 2.39432,-1.37682 4.78866,-4.1011 2.39432,-1.33318 2.39433,0.65968 4.78866,5.45447 2.39432,0.53534 2.39433,-1.41833 4.78865,-3.99185 2.39433,-1.27399 2.39433,0.62441 4.78865,5.26841 2.39433,0.65686 2.39433,-1.17339 4.78865,-3.64645 2.39433,-1.31129 2.39433,0.37915 4.78865,4.51934 2.39433,0.52895 2.39433,-1.07537 4.78865,-3.15688 2.39433,-1.09551 2.39432,0.43627 4.78866,4.22905 2.39433,0.44505 2.39432,-1.05397 4.78866,-2.95887 2.39433,-0.97891 2.39432,0.47714 4.78866,4.10179 2.39432,0.4458 2.39433,-0.99746 4.78866,-2.86509 2.39432,-0.96985 2.39433,0.4187 4.78866,3.88809 2.39432,0.45329 2.39433,-0.91719 4.78865,-2.73471 2.39433,-0.97468 2.39433,0.32704 4.78865,3.59348 2.39433,0.43328 2.39433,-0.83652 4.78865,-2.49185 2.39433,-0.88269 2.39433,0.34148 4.78865,3.46806 2.39433,0.44469 2.39433,-0.76097 4.78865,-2.33031 2.39433,-0.85447 2.39433,0.28168 4.78865,3.14802 2.39433,0.32586 2.39432,-0.82521 4.78866,-2.37569 2.39433,-0.83764 2.39432,0.304 4.78866,3.27114 2.39433,0.51089 2.39432,-0.59153 7.18299,-2.88276 2.39432,0.16869 4.78866,2.75118 2.39432,0.31438 2.39433,-0.69364 4.78866,-2.07274 2.39432,-0.80988 2.39433,0.15518 4.78866,2.65753 2.39432,0.36214 2.39433,-0.54742 2.39433,-0.79725 v 0"
           style="fill:none;stroke:#ff7f0e;stroke-width:1.5;stroke-linecap:square;stroke-linejoin:round;stroke-miterlimit:10;stroke-dasharray:none;stroke-opacity:1"
           id="path112"
           inkscape:connector-curvature="0" /></g></g><g
       id="g114"><g
         id="g116"
         clip-path="url(#clipPath120)"><path
           d="m 108.90327,225.70578 2.39433,-62.30649 2.39433,-0.34625 2.39433,-0.18687 4.78865,1.23544 2.39433,-0.618 2.39432,-0.76356 2.39433,0.77768 2.39433,0.96462 2.39432,-1.00975 2.39433,-1.19646 2.39433,1.17896 2.39433,1.36077 2.39432,-1.58187 2.39433,-1.74859 2.39433,1.79293 2.39433,2.04634 2.39432,-2.21752 2.39433,-2.57242 2.39433,2.43428 2.39432,3.06077 2.39433,-2.62538 2.39433,-3.25482 2.39433,3.29417 2.39432,3.82438 2.39433,-4.16782 2.39433,-4.74736 2.39433,5.09429 2.39432,6.06259 2.39433,-6.12625 2.39433,-7.58772 2.39432,7.8646 2.39433,10.2236 2.39433,-10.53626 2.39433,-15.08418 2.39432,14.81833 2.39433,25.78977 2.39433,-24.97983 2.39433,-78.260599 2.39432,-46.767402 2.39433,43.71745 2.39433,80.154441 2.39433,27.67923 2.39432,-27.23546 2.39433,-16.94746 2.39433,16.69056 2.39432,12.48917 2.39433,-11.96961 2.39433,-9.7723 2.39433,9.37707 2.39432,7.89026 2.39433,-8.05374 2.39433,-6.79246 2.39432,7.16331 2.39433,6.3145 2.39433,-6.17376 2.39433,-5.74761 4.78865,10.50143 4.78866,-9.23945 4.78865,8.93299 4.78865,-8.19978 4.78866,7.18167 4.78865,-6.77351 4.78866,6.49236 4.78865,-6.37678 4.78866,5.9162 4.78865,-5.74794 4.78866,5.54151 4.78865,-5.11488 4.78866,4.86387 2.39432,-2.43145 2.39433,-2.27241 4.78865,4.70548 4.78866,-4.5935 4.78865,4.50702 4.78866,-4.2368 4.78865,4.24054 4.78866,-4.22215 2.39432,1.80976 2.39433,2.00135 4.78866,-3.55274 4.78865,3.58743 4.78866,-3.28666 2.39432,1.70694 2.39433,1.55533 2.39433,-1.86332 2.39433,-1.67204 4.78865,3.49595 4.78865,-3.53339 2.39433,1.59167 2.39433,1.75471 4.78865,-3.02855 2.39433,1.55708 2.39433,1.70043 2.39432,-1.46369 2.39433,-1.78492 2.39433,1.11803 2.39433,1.5129 2.39432,-1.11533 2.39433,-1.2963 4.78866,2.5111 4.78865,-2.72097 2.39433,1.15152 2.39432,1.32985 4.78866,-2.0575 2.39433,1.17653 2.39432,1.00817 2.39433,-1.32924 2.39433,-1.09791 2.39433,1.26541 2.39432,1.06919 2.39433,-1.30247 2.39433,-1.02604 2.39432,1.38482 2.39433,1.15935 2.39433,-1.30709 2.39433,-1.12667 2.39432,1.23434 2.39433,1.00097 2.39433,-1.43624 2.39433,-1.1336 4.78865,2.81277 4.78865,-2.60252 2.39433,1.11444 2.39433,1.31172 2.39433,-0.97973 2.39432,-1.12006 4.78866,2.03897 4.78865,-2.10397 4.78866,2.27604 4.78865,-2.4796 2.39433,1.05126 2.39433,1.26336 2.39433,-0.89589 2.39432,-1.07152 4.78866,1.98219 4.78865,-2.23307 2.39433,0.92476 2.39432,1.1021 2.39433,-0.99473 2.39433,-1.20418 2.39433,0.86846 2.39432,1.2782 2.39433,-0.60008 2.39433,-0.95221 2.39433,0.75389 2.39432,1.0246 2.39433,-0.684 2.39433,-0.93169 4.78865,1.3389 4.78866,-1.6532 4.78865,1.77121 4.78866,-1.86722 2.39432,0.77539 2.39433,0.91649 2.39433,-0.83178 2.39433,-1.02302 2.39432,0.63436 2.39433,0.95182 2.39433,-0.49261 v 0"
           style="fill:none;stroke:#2ca02c;stroke-width:1.5;stroke-linecap:square;stroke-linejoin:round;stroke-miterlimit:10;stroke-dasharray:none;stroke-opacity:1"
           id="path122"
           inkscape:connector-curvature="0" /></g></g><g
       id="g124"><g
         id="g126"
         clip-path="url(#clipPath130)"><path
           d="m 108.90327,225.71586 2.39433,-62.38406 2.39433,-0.27529 2.39433,0.0172 2.39432,0.41038 2.39433,0.1808 2.39433,-0.51055 4.78865,0.35342 2.39433,0.325 4.78865,-0.93965 2.39433,0.55202 2.39433,0.28697 2.39432,-0.54989 2.39433,-0.31028 2.39433,0.39644 2.39433,0.79491 2.39432,-0.73805 2.39433,-0.51263 2.39433,0.14645 2.39432,1.1145 4.78866,-0.97888 2.39433,0.33912 2.39432,0.78281 4.78866,-1.72598 2.39433,0.94666 2.39432,1.20196 4.78866,-2.85941 2.39432,1.87067 2.39433,1.65611 2.39433,-1.95051 2.39433,-2.9609 2.39432,2.67679 2.39433,5.28678 2.39433,-4.57113 2.39433,-16.11785 2.39432,-108.815863 2.39433,108.351013 2.39433,15.88371 2.39433,5.67946 2.39432,-5.59852 2.39433,-3.33141 2.39433,3.56688 2.39432,2.35853 2.39433,-2.33134 2.39433,-1.8944 4.78865,3.19372 2.39433,-1.85803 2.39433,-1.21644 2.39432,1.61335 2.39433,1.39638 2.39433,-1.28171 2.39433,-1.11703 2.39432,0.70644 2.39433,1.17029 2.39433,-0.72931 2.39433,-0.86121 2.39432,0.93344 2.39433,0.47092 2.39433,-0.20559 2.39432,-1.19673 2.39433,0.87647 2.39433,0.42038 2.39433,-0.48923 2.39432,-0.662 4.78866,1.42183 2.39433,-0.86279 2.39432,-0.32114 2.39433,0.68875 2.39433,0.38377 2.39432,-0.87118 2.39433,-0.18396 2.39433,0.43296 2.39433,0.66372 2.39432,-0.75233 2.39433,-0.52781 2.39433,0.29777 2.39433,0.98441 2.39432,-0.8722 2.39433,-0.37447 2.39433,0.37966 2.39432,0.74234 2.39433,-0.67606 2.39433,-0.50223 4.78865,1.02255 2.39433,-0.38425 2.39433,-0.24533 2.39433,0.24505 2.39432,0.36093 2.39433,-0.28116 2.39433,-0.72854 2.39432,0.47471 2.39433,0.2917 2.39433,-0.12029 2.39433,-0.56914 2.39433,0.56673 2.39432,0.43163 2.39433,-0.31605 2.39433,-0.71193 2.39432,0.39193 2.39433,0.56775 2.39433,-0.47926 2.39433,-0.30692 2.39432,0.51803 2.39433,0.089 2.39433,-0.23365 2.39432,-0.69293 2.39433,0.42878 2.39433,0.90776 2.39433,-0.53227 2.39432,-0.75091 4.78866,0.96574 2.39432,0.01 2.39433,-0.78034 2.39433,0.26375 4.78865,0.24728 2.39433,-0.53764 2.39433,0.23203 2.39433,0.58871 2.39432,-0.39503 2.39433,-0.57321 2.39433,0.55367 2.39432,0.13176 7.18299,-0.10724 2.39432,0.0678 4.78866,-0.31082 2.39433,0.31236 2.39432,0.0868 2.39433,-0.34175 2.39433,-0.007 4.78865,0.67224 2.39433,-0.45396 2.39433,-0.116 4.78865,0.2297 2.39433,-0.44129 4.78865,0.0867 2.39433,0.50732 2.39433,-0.17681 2.39432,-0.3998 2.39433,0.3985 2.39433,0.27603 2.39433,-0.16885 2.39432,-0.77726 2.39433,0.59546 2.39433,-0.20302 2.39433,0.2072 2.39432,-0.0586 2.39433,0.29078 2.39433,0.0984 2.39432,-0.29015 4.78866,-0.22437 2.39433,0.74267 4.78865,-0.66815 2.39433,-0.19977 2.39433,0.28676 2.39432,0.0725 2.39433,-0.51237 2.39433,0.2119 2.39432,0.47409 4.78866,-0.56467 2.39433,0.0865 2.39432,0.37871 2.39433,0.13551 2.39433,-0.5847 2.39433,-0.0553 4.78865,0.78229 2.39433,-0.46448 2.39433,0.0306 2.39432,0.24179 2.39433,-0.25157 2.39433,-0.0829 4.78865,0.5548 2.39433,-0.40338 7.18298,0.2579 4.78866,-0.7094 2.39432,0.25981 4.78866,0.15544 v 0"
           style="fill:none;stroke:#d62728;stroke-width:1.5;stroke-linecap:square;stroke-linejoin:round;stroke-miterlimit:10;stroke-dasharray:none;stroke-opacity:1"
           id="path132"
           inkscape:connector-curvature="0" /></g></g><g
       id="g134"><g
         id="g136"
         clip-path="url(#clipPath140)"><path
           d="m 108.90327,225.7164 2.39433,-62.38134 2.39433,0.31689 2.39433,-0.58342 2.39432,0.41615 2.39433,0.006 2.39433,-0.24229 2.39432,0.36771 7.18298,-0.38644 2.39433,-0.304 2.39433,0.52051 2.39433,0.008 2.39432,0.22609 2.39433,-0.34508 4.78866,-0.0319 2.39432,0.17999 2.39433,-0.15768 2.39433,-0.36599 2.39432,0.41542 4.78866,0.036 2.39433,0.0233 2.39432,-0.10905 7.18299,0.11254 2.39432,0.0235 2.39433,-0.69922 2.39433,0.57899 2.39432,0.30999 2.39433,-0.64126 2.39433,0.26224 2.39433,0.0276 2.39432,-0.22709 2.39433,0.33496 2.39433,0.11527 2.39433,-0.0577 2.39432,-124.610579 2.39433,124.461499 4.78866,0.0282 2.39432,-0.17403 4.78866,0.26606 2.39432,-0.15869 4.78866,0.27336 2.39433,-0.18891 2.39432,0.002 2.39433,-0.49029 2.39433,0.28541 2.39432,0.0872 2.39433,0.25037 2.39433,-0.11142 2.39433,0.22959 2.39432,-0.29328 2.39433,-0.47569 2.39433,0.56976 2.39433,0.15307 2.39432,-0.364 2.39433,-0.0606 2.39433,0.60905 4.78865,-0.58924 2.39433,-0.007 2.39433,0.2075 4.78865,-0.0549 4.78866,-0.0481 2.39432,0.17421 4.78866,-0.28249 2.39432,-0.0115 2.39433,0.31425 2.39433,-0.20003 2.39433,0.24737 2.39432,-0.2012 2.39433,0.009 2.39433,0.14407 2.39433,-0.0772 4.78865,-0.30369 2.39433,0.54935 2.39432,-0.11982 4.78866,-0.40598 2.39433,0.36961 2.39432,0.0317 4.78866,-0.12609 2.39433,-0.31229 2.39432,0.34383 2.39433,0.0668 2.39433,-0.22245 2.39432,0.10629 2.39433,-0.20152 2.39433,0.23525 4.78866,-0.0187 2.39432,-0.15247 2.39433,0.28432 2.39433,-0.55497 2.39432,0.30423 2.39433,0.0935 2.39433,-0.0743 2.39433,0.25616 2.39432,-0.2548 2.39433,0.11572 2.39433,-0.0506 2.39432,-0.16249 2.39433,0.0295 2.39433,0.25033 2.39433,-0.006 2.39432,-0.3132 2.39433,0.26031 4.78865,0.27726 2.39433,-0.55275 2.39433,0.17348 2.39433,-0.16859 2.39432,0.27854 4.78866,0.14533 2.39433,-0.39489 2.39432,0.13763 2.39433,-0.0813 2.39433,0.18618 2.39432,-0.44977 2.39433,0.41312 2.39433,0.2328 2.39433,0.0194 2.39432,-0.40925 7.18299,-0.0659 2.39432,0.31421 2.39433,-0.34017 2.39433,0.52408 2.39432,-0.15904 11.97164,-0.16165 2.39433,-0.31996 2.39433,0.25038 2.39432,0.1281 2.39433,-0.46305 2.39433,0.50178 2.39432,-0.18819 4.78866,0.2762 2.39433,0.0179 2.39432,-0.52173 2.39433,0.6007 2.39433,-0.48671 4.78865,0.54202 2.39433,-0.51093 2.39433,0.42553 2.39432,-0.18602 2.39433,0.10801 2.39433,-0.37058 2.39433,0.57837 7.18298,-0.36029 2.39433,-0.0428 4.78865,0.10424 2.39433,-0.30354 2.39432,0.19843 4.78866,-0.17247 2.39433,0.39721 2.39432,-0.38064 2.39433,0.46346 2.39433,-0.28634 2.39433,0.21434 2.39432,-0.40204 2.39433,0.61632 2.39433,-0.48911 2.39433,-0.19805 2.39432,0.29339 2.39433,-0.0499 2.39433,-0.17492 7.18298,0.24347 2.39433,-0.0229 2.39432,-0.37495 2.39433,0.40683 2.39433,-0.11582 2.39433,0.0989 2.39432,-0.31684 2.39433,0.01 2.39433,0.27861 v 0"
           style="fill:none;stroke:#9467bd;stroke-width:1.5;stroke-linecap:square;stroke-linejoin:round;stroke-miterlimit:10;stroke-dasharray:none;stroke-opacity:1"
           id="path142"
           inkscape:connector-curvature="0" /></g></g><g
       id="g144"><path
         d="M 84.96,29.3832 V 235.0656"
         style="fill:none;stroke:#000000;stroke-width:0.80000001;stroke-linecap:square;stroke-linejoin:miter;stroke-miterlimit:10;stroke-dasharray:none;stroke-opacity:1"
         id="path146"
         inkscape:connector-curvature="0" /><path
         d="M 611.712,29.3832 V 235.0656"
         style="fill:none;stroke:#000000;stroke-width:0.80000001;stroke-linecap:square;stroke-linejoin:miter;stroke-miterlimit:10;stroke-dasharray:none;stroke-opacity:1"
         id="path148"
         inkscape:connector-curvature="0" /><path
         d="M 84.96,29.3832 H 611.712"
         style="fill:none;stroke:#000000;stroke-width:0.80000001;stroke-linecap:square;stroke-linejoin:miter;stroke-miterlimit:10;stroke-dasharray:none;stroke-opacity:1"
         id="path150"
         inkscape:connector-curvature="0" /><path
         d="M 84.96,235.0656 H 611.712"
         style="fill:none;stroke:#000000;stroke-width:0.80000001;stroke-linecap:square;stroke-linejoin:miter;stroke-miterlimit:10;stroke-dasharray:none;stroke-opacity:1"
         id="path152"
         inkscape:connector-curvature="0" /><path
         d="m 91.96,34.3832 h 65.35937 c 1.33334,0 2,0.666667 2,2 v 72.35938 c 0,1.33333 -0.66666,2 -2,2 H 91.96 c -1.333333,0 -2,-0.66667 -2,-2 V 36.3832 c 0,-1.333333 0.666667,-2 2,-2 z"
         style="fill:#ffffff;fill-opacity:0.8;fill-rule:nonzero;stroke:#cccccc;stroke-width:1;stroke-linecap:butt;stroke-linejoin:miter;stroke-miterlimit:10;stroke-dasharray:none;stroke-opacity:0.8"
         id="path154"
         inkscape:connector-curvature="0" /><path
         d="m 93.96,102.64883 h 20"
         style="fill:none;stroke:#1f77b4;stroke-width:1.5;stroke-linecap:square;stroke-linejoin:round;stroke-miterlimit:10;stroke-dasharray:none;stroke-opacity:1"
         id="path156"
         inkscape:connector-curvature="0" /><text
         transform="matrix(1,0,0,-1,121.96,99.148825)"
         style="font-variant:normal;font-weight:normal;font-size:10px;font-family:'DejaVu Sans';-inkscape-font-specification:DejaVuSans;writing-mode:lr-tb;fill:#000000;fill-opacity:1;fill-rule:nonzero;stroke:none"
         id="text160"><tspan
           x="0 6.1100001 14.49 20.85 27"
           y="0"
           sodipodi:role="line"
           id="tspan158">T=1e3</tspan></text>
<path
         d="m 93.96,87.97695 h 20"
         style="fill:none;stroke:#ff7f0e;stroke-width:1.5;stroke-linecap:square;stroke-linejoin:round;stroke-miterlimit:10;stroke-dasharray:none;stroke-opacity:1"
         id="path162"
         inkscape:connector-curvature="0" /><text
         transform="matrix(1,0,0,-1,121.96,84.47695)"
         style="font-variant:normal;font-weight:normal;font-size:10px;font-family:'DejaVu Sans';-inkscape-font-specification:DejaVuSans;writing-mode:lr-tb;fill:#000000;fill-opacity:1;fill-rule:nonzero;stroke:none"
         id="text166"><tspan
           x="0 6.1100001 14.49 20.85 27"
           y="0"
           sodipodi:role="line"
           id="tspan164">T=5e3</tspan></text>
<path
         d="m 93.96,73.305075 h 20"
         style="fill:none;stroke:#2ca02c;stroke-width:1.5;stroke-linecap:square;stroke-linejoin:round;stroke-miterlimit:10;stroke-dasharray:none;stroke-opacity:1"
         id="path168"
         inkscape:connector-curvature="0" /><text
         transform="matrix(1,0,0,-1,121.96,69.805075)"
         style="font-variant:normal;font-weight:normal;font-size:10px;font-family:'DejaVu Sans';-inkscape-font-specification:DejaVuSans;writing-mode:lr-tb;fill:#000000;fill-opacity:1;fill-rule:nonzero;stroke:none"
         id="text172"><tspan
           x="0 6.1100001 14.49 20.85 27"
           y="0"
           sodipodi:role="line"
           id="tspan170">T=1e4</tspan></text>
<path
         d="m 93.96,58.6332 h 20"
         style="fill:none;stroke:#d62728;stroke-width:1.5;stroke-linecap:square;stroke-linejoin:round;stroke-miterlimit:10;stroke-dasharray:none;stroke-opacity:1"
         id="path174"
         inkscape:connector-curvature="0" /><text
         transform="matrix(1,0,0,-1,121.96,55.1332)"
         style="font-variant:normal;font-weight:normal;font-size:10px;font-family:'DejaVu Sans';-inkscape-font-specification:DejaVuSans;writing-mode:lr-tb;fill:#000000;fill-opacity:1;fill-rule:nonzero;stroke:none"
         id="text178"><tspan
           x="0 6.1100001 14.49 20.85 27"
           y="0"
           sodipodi:role="line"
           id="tspan176">T=5e4</tspan></text>
<path
         d="m 93.96,43.961325 h 20"
         style="fill:none;stroke:#9467bd;stroke-width:1.5;stroke-linecap:square;stroke-linejoin:round;stroke-miterlimit:10;stroke-dasharray:none;stroke-opacity:1"
         id="path180"
         inkscape:connector-curvature="0" /><text
         transform="matrix(1,0,0,-1,121.96,40.461325)"
         style="font-variant:normal;font-weight:normal;font-size:10px;font-family:'DejaVu Sans';-inkscape-font-specification:DejaVuSans;writing-mode:lr-tb;fill:#000000;fill-opacity:1;fill-rule:nonzero;stroke:none"
         id="text184"><tspan
           x="0 6.1100001 14.49 20.85 27"
           y="0"
           sodipodi:role="line"
           id="tspan182">T=1e5</tspan></text>
</g></g></svg>