<?xml version="1.0" encoding="UTF-8" standalone="no"?>
<!-- Created with Inkscape (http://www.inkscape.org/) -->

<svg
   xmlns:dc="http://purl.org/dc/elements/1.1/"
   xmlns:cc="http://creativecommons.org/ns#"
   xmlns:rdf="http://www.w3.org/1999/02/22-rdf-syntax-ns#"
   xmlns:svg="http://www.w3.org/2000/svg"
   xmlns="http://www.w3.org/2000/svg"
   xmlns:sodipodi="http://sodipodi.sourceforge.net/DTD/sodipodi-0.dtd"
   xmlns:inkscape="http://www.inkscape.org/namespaces/inkscape"
   version="1.1"
   id="svg2"
   xml:space="preserve"
   width="1463.3563"
   height="219.02527"
   viewBox="0 0 1463.3563 219.02527"
   sodipodi:docname="wrong_freq.svg"
   inkscape:version="0.92.3 (2405546, 2018-03-11)"><metadata
     id="metadata8"><rdf:RDF><cc:Work
         rdf:about=""><dc:format>image/svg+xml</dc:format><dc:type
           rdf:resource="http://purl.org/dc/dcmitype/StillImage" /><dc:title></dc:title></cc:Work></rdf:RDF></metadata><defs
     id="defs6"><clipPath
       clipPathUnits="userSpaceOnUse"
       id="clipPath68"><path
         d="M -1021,-463 H 1794 V 1233 H -1021 Z"
         id="path66"
         inkscape:connector-curvature="0" /></clipPath><clipPath
       clipPathUnits="userSpaceOnUse"
       id="clipPath88"><path
         d="M -1021,-463 H 1794 V 1233 H -1021 Z"
         id="path86"
         inkscape:connector-curvature="0" /></clipPath><clipPath
       clipPathUnits="userSpaceOnUse"
       id="clipPath108"><path
         d="M -1021,-463 H 1794 V 1233 H -1021 Z"
         id="path106"
         inkscape:connector-curvature="0" /></clipPath><clipPath
       clipPathUnits="userSpaceOnUse"
       id="clipPath142"><path
         d="M 172.08,21.3048 H 1238.976 V 170.4384 H 172.08 Z"
         id="path140"
         inkscape:connector-curvature="0" /></clipPath><clipPath
       clipPathUnits="userSpaceOnUse"
       id="clipPath152"><path
         d="M 172.08,21.3048 H 1238.976 V 170.4384 H 172.08 Z"
         id="path150"
         inkscape:connector-curvature="0" /></clipPath></defs><sodipodi:namedview
     pagecolor="#ffffff"
     bordercolor="#666666"
     borderopacity="1"
     objecttolerance="10"
     gridtolerance="10"
     guidetolerance="10"
     inkscape:pageopacity="0"
     inkscape:pageshadow="2"
     inkscape:window-width="1920"
     inkscape:window-height="1025"
     id="namedview4"
     showgrid="false"
     fit-margin-top="0"
     fit-margin-left="0"
     fit-margin-right="0"
     fit-margin-bottom="0"
     inkscape:zoom="0.74529288"
     inkscape:cx="114.2128"
     inkscape:cy="40.19393"
     inkscape:window-x="0"
     inkscape:window-y="27"
     inkscape:window-maximized="1"
     inkscape:current-layer="g10" /><g
     id="g10"
     inkscape:groupmode="layer"
     inkscape:label="wrong_freq"
     transform="matrix(1.3333333,0,0,-1.3333333,-189.145,227.78453)"><path
       d="m 219.6044,21.3048 v -3.5"
       style="fill:#000000;fill-opacity:1;fill-rule:nonzero;stroke:#000000;stroke-width:0.80000001;stroke-linecap:butt;stroke-linejoin:round;stroke-miterlimit:10;stroke-dasharray:none;stroke-opacity:1"
       id="path16"
       inkscape:connector-curvature="0" /><text
       transform="matrix(1,0,0,-1,216.42471,6.71105)"
       style="font-variant:normal;font-weight:normal;font-size:10px;font-family:'DejaVu Sans';-inkscape-font-specification:DejaVuSans;writing-mode:lr-tb;fill:#000000;fill-opacity:1;fill-rule:nonzero;stroke:none"
       id="text20"><tspan
         x="0"
         y="0"
         id="tspan18">0</tspan></text>
<path
       d="m 413.77966,21.3048 v -3.5"
       style="fill:#000000;fill-opacity:1;fill-rule:nonzero;stroke:#000000;stroke-width:0.80000001;stroke-linecap:butt;stroke-linejoin:round;stroke-miterlimit:10;stroke-dasharray:none;stroke-opacity:1"
       id="path22"
       inkscape:connector-curvature="0" /><text
       transform="matrix(1,0,0,-1,404.2406,6.71105)"
       style="font-variant:normal;font-weight:normal;font-size:10px;font-family:'DejaVu Sans';-inkscape-font-specification:DejaVuSans;writing-mode:lr-tb;fill:#000000;fill-opacity:1;fill-rule:nonzero;stroke:none"
       id="text26"><tspan
         x="0 6.3600001 12.72"
         y="0"
         sodipodi:role="line"
         id="tspan24">200</tspan></text>
<path
       d="m 607.95493,21.3048 v -3.5"
       style="fill:#000000;fill-opacity:1;fill-rule:nonzero;stroke:#000000;stroke-width:0.80000001;stroke-linecap:butt;stroke-linejoin:round;stroke-miterlimit:10;stroke-dasharray:none;stroke-opacity:1"
       id="path28"
       inkscape:connector-curvature="0" /><text
       transform="matrix(1,0,0,-1,598.41587,6.71105)"
       style="font-variant:normal;font-weight:normal;font-size:10px;font-family:'DejaVu Sans';-inkscape-font-specification:DejaVuSans;writing-mode:lr-tb;fill:#000000;fill-opacity:1;fill-rule:nonzero;stroke:none"
       id="text32"><tspan
         x="0 6.3600001 12.72"
         y="0"
         sodipodi:role="line"
         id="tspan30">400</tspan></text>
<path
       d="m 802.13019,21.3048 v -3.5"
       style="fill:#000000;fill-opacity:1;fill-rule:nonzero;stroke:#000000;stroke-width:0.80000001;stroke-linecap:butt;stroke-linejoin:round;stroke-miterlimit:10;stroke-dasharray:none;stroke-opacity:1"
       id="path34"
       inkscape:connector-curvature="0" /><text
       transform="matrix(1,0,0,-1,792.59113,6.71105)"
       style="font-variant:normal;font-weight:normal;font-size:10px;font-family:'DejaVu Sans';-inkscape-font-specification:DejaVuSans;writing-mode:lr-tb;fill:#000000;fill-opacity:1;fill-rule:nonzero;stroke:none"
       id="text38"><tspan
         x="0 6.3600001 12.72"
         y="0"
         sodipodi:role="line"
         id="tspan36">600</tspan></text>
<path
       d="m 996.30546,21.3048 v -3.5"
       style="fill:#000000;fill-opacity:1;fill-rule:nonzero;stroke:#000000;stroke-width:0.80000001;stroke-linecap:butt;stroke-linejoin:round;stroke-miterlimit:10;stroke-dasharray:none;stroke-opacity:1"
       id="path40"
       inkscape:connector-curvature="0" /><text
       transform="matrix(1,0,0,-1,986.7664,6.71105)"
       style="font-variant:normal;font-weight:normal;font-size:10px;font-family:'DejaVu Sans';-inkscape-font-specification:DejaVuSans;writing-mode:lr-tb;fill:#000000;fill-opacity:1;fill-rule:nonzero;stroke:none"
       id="text44"><tspan
         x="0 6.3600001 12.72"
         y="0"
         sodipodi:role="line"
         id="tspan42">800</tspan></text>
<path
       d="m 1190.4807,21.3048 v -3.5"
       style="fill:#000000;fill-opacity:1;fill-rule:nonzero;stroke:#000000;stroke-width:0.80000001;stroke-linecap:butt;stroke-linejoin:round;stroke-miterlimit:10;stroke-dasharray:none;stroke-opacity:1"
       id="path46"
       inkscape:connector-curvature="0" /><text
       transform="matrix(1,0,0,-1,1177.762,6.71105)"
       style="font-variant:normal;font-weight:normal;font-size:10px;font-family:'DejaVu Sans';-inkscape-font-specification:DejaVuSans;writing-mode:lr-tb;fill:#000000;fill-opacity:1;fill-rule:nonzero;stroke:none"
       id="text50"><tspan
         x="0 6.3600001 12.72 19.08"
         y="0"
         sodipodi:role="line"
         id="tspan48">1000</tspan></text>
<path
       d="m 172.08,27.71076 h -3.5"
       style="fill:#000000;fill-opacity:1;fill-rule:nonzero;stroke:#000000;stroke-width:0.80000001;stroke-linecap:butt;stroke-linejoin:round;stroke-miterlimit:10;stroke-dasharray:none;stroke-opacity:1"
       id="path52"
       inkscape:connector-curvature="0" /><g
       id="g54"
       transform="translate(140.79875,23.913885)"><text
         transform="matrix(1,0,0,-1,8.3789063,0)"
         style="font-variant:normal;font-weight:normal;font-size:10px;font-family:'DejaVu Sans';-inkscape-font-specification:DejaVuSans;writing-mode:lr-tb;fill:#000000;fill-opacity:1;fill-rule:nonzero;stroke:none"
         id="text58"><tspan
           x="0 6.3600001 9.54"
           y="0"
           sodipodi:role="line"
           id="tspan56">1.5</tspan></text>
<g
         id="g60"
         transform="scale(0.01)"><g
           id="g62"><g
             id="g64"
             clip-path="url(#clipPath68)"><path
               d="M 106,355 H 732 V 272 H 106 v 83"
               style="fill:#000000;fill-opacity:1;fill-rule:nonzero;stroke:none"
               id="path70"
               inkscape:connector-curvature="0" /></g></g></g></g><path
       d="m 172.08,50.492564 h -3.5"
       style="fill:#000000;fill-opacity:1;fill-rule:nonzero;stroke:#000000;stroke-width:0.80000001;stroke-linecap:butt;stroke-linejoin:round;stroke-miterlimit:10;stroke-dasharray:none;stroke-opacity:1"
       id="path72"
       inkscape:connector-curvature="0" /><g
       id="g74"
       transform="translate(140.79875,46.695689)"><text
         transform="matrix(1,0,0,-1,8.3789063,0)"
         style="font-variant:normal;font-weight:normal;font-size:10px;font-family:'DejaVu Sans';-inkscape-font-specification:DejaVuSans;writing-mode:lr-tb;fill:#000000;fill-opacity:1;fill-rule:nonzero;stroke:none"
         id="text78"><tspan
           x="0 6.3600001 9.54"
           y="0"
           sodipodi:role="line"
           id="tspan76">1.0</tspan></text>
<g
         id="g80"
         transform="scale(0.01)"><g
           id="g82"><g
             id="g84"
             clip-path="url(#clipPath88)"><path
               d="M 106,355 H 732 V 272 H 106 v 83"
               style="fill:#000000;fill-opacity:1;fill-rule:nonzero;stroke:none"
               id="path90"
               inkscape:connector-curvature="0" /></g></g></g></g><path
       d="m 172.08,73.274367 h -3.5"
       style="fill:#000000;fill-opacity:1;fill-rule:nonzero;stroke:#000000;stroke-width:0.80000001;stroke-linecap:butt;stroke-linejoin:round;stroke-miterlimit:10;stroke-dasharray:none;stroke-opacity:1"
       id="path92"
       inkscape:connector-curvature="0" /><g
       id="g94"
       transform="translate(140.79875,69.477492)"><text
         transform="matrix(1,0,0,-1,8.3789063,0)"
         style="font-variant:normal;font-weight:normal;font-size:10px;font-family:'DejaVu Sans';-inkscape-font-specification:DejaVuSans;writing-mode:lr-tb;fill:#000000;fill-opacity:1;fill-rule:nonzero;stroke:none"
         id="text98"><tspan
           x="0 6.3600001 9.54"
           y="0"
           sodipodi:role="line"
           id="tspan96">0.5</tspan></text>
<g
         id="g100"
         transform="scale(0.01)"><g
           id="g102"><g
             id="g104"
             clip-path="url(#clipPath108)"><path
               d="M 106,355 H 732 V 272 H 106 v 83"
               style="fill:#000000;fill-opacity:1;fill-rule:nonzero;stroke:none"
               id="path110"
               inkscape:connector-curvature="0" /></g></g></g></g><path
       d="m 172.08,96.056171 h -3.5"
       style="fill:#000000;fill-opacity:1;fill-rule:nonzero;stroke:#000000;stroke-width:0.80000001;stroke-linecap:butt;stroke-linejoin:round;stroke-miterlimit:10;stroke-dasharray:none;stroke-opacity:1"
       id="path112"
       inkscape:connector-curvature="0" /><text
       transform="matrix(1,0,0,-1,149.17375,92.259296)"
       style="font-variant:normal;font-weight:normal;font-size:10px;font-family:'DejaVu Sans';-inkscape-font-specification:DejaVuSans;writing-mode:lr-tb;fill:#000000;fill-opacity:1;fill-rule:nonzero;stroke:none"
       id="text116"><tspan
         x="0 6.3600001 9.54"
         y="0"
         sodipodi:role="line"
         id="tspan114">0.0</tspan></text>
<path
       d="m 172.08,118.83797 h -3.5"
       style="fill:#000000;fill-opacity:1;fill-rule:nonzero;stroke:#000000;stroke-width:0.80000001;stroke-linecap:butt;stroke-linejoin:round;stroke-miterlimit:10;stroke-dasharray:none;stroke-opacity:1"
       id="path118"
       inkscape:connector-curvature="0" /><text
       transform="matrix(1,0,0,-1,149.17375,115.0411)"
       style="font-variant:normal;font-weight:normal;font-size:10px;font-family:'DejaVu Sans';-inkscape-font-specification:DejaVuSans;writing-mode:lr-tb;fill:#000000;fill-opacity:1;fill-rule:nonzero;stroke:none"
       id="text122"><tspan
         x="0 6.3600001 9.54"
         y="0"
         sodipodi:role="line"
         id="tspan120">0.5</tspan></text>
<path
       d="m 172.08,141.61978 h -3.5"
       style="fill:#000000;fill-opacity:1;fill-rule:nonzero;stroke:#000000;stroke-width:0.80000001;stroke-linecap:butt;stroke-linejoin:round;stroke-miterlimit:10;stroke-dasharray:none;stroke-opacity:1"
       id="path124"
       inkscape:connector-curvature="0" /><text
       transform="matrix(1,0,0,-1,149.17375,137.8229)"
       style="font-variant:normal;font-weight:normal;font-size:10px;font-family:'DejaVu Sans';-inkscape-font-specification:DejaVuSans;writing-mode:lr-tb;fill:#000000;fill-opacity:1;fill-rule:nonzero;stroke:none"
       id="text128"><tspan
         x="0 6.3600001 9.54"
         y="0"
         sodipodi:role="line"
         id="tspan126">1.0</tspan></text>
<path
       d="m 172.08,164.40158 h -3.5"
       style="fill:#000000;fill-opacity:1;fill-rule:nonzero;stroke:#000000;stroke-width:0.80000001;stroke-linecap:butt;stroke-linejoin:round;stroke-miterlimit:10;stroke-dasharray:none;stroke-opacity:1"
       id="path130"
       inkscape:connector-curvature="0" /><text
       transform="matrix(1,0,0,-1,149.17375,160.60471)"
       style="font-variant:normal;font-weight:normal;font-size:10px;font-family:'DejaVu Sans';-inkscape-font-specification:DejaVuSans;writing-mode:lr-tb;fill:#000000;fill-opacity:1;fill-rule:nonzero;stroke:none"
       id="text134"><tspan
         x="0 6.3600001 9.54"
         y="0"
         sodipodi:role="line"
         id="tspan132">1.5</tspan></text>
<g
       id="g136"><g
         id="g138"
         clip-path="url(#clipPath142)"><path
           d="m 220.57527,102.10201 0.97088,-6.70919 0.97087,-14.181173 0.97088,9.853816 0.97088,39.360607 0.97087,-11.43924 0.97088,8.35757 0.97088,-21.25562 0.97087,18.04148 0.97088,3.05739 0.97088,6.22275 0.97087,9.55142 0.97088,-18.73437 0.97087,14.57447 0.97088,-12.36812 0.97088,23.18703 0.97087,-23.94021 0.97088,21.97714 0.97088,1.09841 0.97087,-2.26856 0.97088,7.70623 0.97088,-17.48453 0.97087,19.57452 0.97088,-26.79597 0.97087,18.97731 0.97088,-6.66278 0.97088,-8.41526 0.97087,-2.77266 0.97088,-4.45773 0.97088,4.64222 0.97087,29.39284 0.97088,-33.5837 0.97087,9.07525 0.97088,23.70335 0.97088,-41.82343 0.97087,36.1394 0.97088,-10.68473 0.97088,6.2727 0.97087,2.81183 0.97088,-1.67254 0.97088,-28.87735 0.97087,4.97316 0.97088,-4.13588 0.97087,-17.874 0.97088,16.89974 0.97088,5.45418 0.97087,-8.81613 0.97088,8.45477 0.97088,-4.57679 0.97087,4.76718 0.97088,-28.218228 0.97088,0.660923 0.97087,17.477925 0.97088,-4.34505 0.97087,-21.178878 0.97088,1.470194 0.97088,14.110144 0.97087,-28.7554 0.97088,20.811655 0.97088,6.479805 0.97087,-11.00493 0.97088,-5.10772 0.97088,-12.404594 0.97087,-21.768999 0.97088,3.658258 0.97087,10.69597 0.97088,-20.165148 0.97088,26.652141 0.97087,9.130689 0.97088,-40.482828 0.97088,18.146043 0.97087,-11.250668 0.97088,20.792096 0.97088,-35.19863 0.97087,17.315084 0.97088,-6.603856 0.97087,-4.021053 0.97088,-11.421575 0.97088,19.700724 0.97087,-20.511094 0.97088,1.650892 0.97088,9.005527 0.97087,7.698838 0.97088,10.92124 0.97088,-31.53502 0.97087,38.62359 0.97088,-38.767414 0.97087,38.890726 0.97088,-9.268596 0.97088,-16.223978 0.97087,11.043447 0.97088,6.022031 0.97087,-16.876093 0.97088,31.094877 0.97088,-22.924708 0.97087,26.193113 0.97088,-14.630555 0.97088,15 0.97087,-14.586994 0.97088,4.363379 0.97088,-3.342724 0.97087,-2.256645 0.97088,19.779783 0.97087,-23.899189 0.97088,44.344103 0.97088,-21.206639 0.97087,-16.517568 0.97088,11.562437 0.97088,1.020664 0.97087,12.557604 0.97088,2.680246 0.97088,20.871776 0.97087,-24.955599 0.97088,37.364169 0.97087,-34.030947 0.97088,3.212299 0.97088,-4.022657 0.97087,34.217815 0.97088,-6.4602 0.97088,21.41468 0.97087,-24.03937 0.97088,10.51941 0.97087,-3.90309 0.97088,-2.02343 0.97088,2.85383 1.94175,3.45302 0.97088,-10.71916 0.97087,28.74192 0.97088,-1.14954 0.97088,-21.97691 0.97087,7.22536 0.97088,4.46192 0.97087,6.99952 0.97088,22.5118 0.97088,-34.62005 0.97087,21.8812 0.97088,-10.22524 0.97088,22.71311 0.97087,-36.88868 0.97088,-3.65636 0.97087,30.36574 0.97088,-9.74595 0.97088,10.36812 0.97087,-27.35912 0.97088,0.93515 0.97088,3.40884 0.97087,16.24745 0.97088,4.13712 0.97088,-29.184 0.97087,-1.78555 0.97088,28.47243 0.97088,0.41932 0.97087,-9.05172 0.97088,-30.34864 0.97087,8.98745 0.97088,-14.83044 0.97088,37.69197 0.97087,-7.30738 0.97088,-13.64848 0.97088,-27.165127 0.97087,14.378257 0.97088,-16.377995 0.97087,11.566455 0.97088,-18.577893 0.97088,3.156939 0.97087,15.727444 0.97088,-13.194576 0.97088,-15.725171 0.97087,34.166967 0.97088,-15.310122 0.97087,4.107046 0.97088,-33.814399 0.97088,6.744116 0.97087,18.704243 0.97088,5.70472 0.97088,-6.393157 0.97087,-30.643561 0.97088,28.300141 0.97088,-38.978508 0.97087,38.972395 0.97088,-28.571894 0.97087,4.502997 0.97088,9.556863 0.97088,3.481309 0.97087,1.937823 0.97088,-0.733756 0.97088,-26.751399 0.97087,-7.321424 0.97088,-4.724158 0.97088,18.984761 0.97087,-23.953179 0.97088,31.936233 0.97087,-34.92988 0.97088,38.505496 0.97088,-7.547372 0.97087,-13.183821 0.97088,-15.484356 0.97088,18.256511 0.97087,-3.421861 0.97088,19.506475 0.97087,-30.537892 0.97088,9.644168 0.97088,19.308544 0.97087,-14.594548 0.97088,18.605978 0.97088,-3.937255 0.97087,-20.153907 0.97088,24.56725 0.97088,-0.113336 0.97087,13.272733 0.97088,-6.301724 1.94175,15.725109 0.97088,-14.370453 0.97087,-4.933591 0.97088,31.748112 0.97088,1.48305 0.97087,-35.863876 0.97088,30.975074 0.97088,12.715482 0.97087,5.85508 0.97088,-34.610686 0.97087,3.984413 0.97088,-6.567925 0.97088,7.227459 0.97087,16.683969 0.97088,11.51322 0.97088,17.22338 0.97087,4.04798 0.97088,-42.278849 0.97088,22.400899 0.97087,-15.89101 0.97088,27.65578 0.97087,14.42539 0.97088,-5.99277 0.97088,-8.53863 0.97087,-9.60174 0.97088,15.31326 0.97088,-12.56893 0.97087,30.75154 0.97088,-21.05173 0.97087,2.68795 0.97088,22.7824 0.97088,-21.33962 0.97087,-9.24311 0.97088,35.16626 0.97088,-0.11512 0.97087,-0.72195 0.97088,-41.86561 0.97087,26.8966 0.97088,0.0386 0.97088,-4.10286 0.97087,-16.32896 0.97088,23.30456 0.97088,-24.79072 0.97087,-6.80868 1.94176,34.27532 0.97087,-28.01185 0.97088,29.5096 0.97087,-34.36287 0.97088,-9.78288 0.97088,12.34401 0.97087,-13.30193 0.97088,8.86246 0.97088,-7.26615 0.97087,15.95207 0.97088,-10.13193 0.97088,12.40718 0.97087,-16.9887 0.97088,-22.50487 0.97087,14.07111 0.97088,5.05103 0.97088,-0.52891 0.97087,-15.916893 0.97088,-3.08774 0.97088,29.337933 0.97087,-2.32044 0.97088,-44.93509 0.97087,12.443121 0.97088,6.320588 0.97088,15.056491 0.97087,-4.675473 0.97088,-10.134365 0.97088,-20.037684 0.97087,0.102533 0.97088,-1.882979 0.97088,15.280969 0.97087,4.39305 0.97088,-4.994895 0.97088,-1.712002 0.97087,-38.124727 0.97088,-0.283321 0.97087,-3.809614 0.97088,30.871654 0.97088,-35.014164 0.97087,10.821206 0.97088,23.921396 0.97088,-31.874893 0.97087,-2.697637 0.97088,-4.332208 0.97088,24.447086 0.97087,-7.72169 0.97088,-1.992854 0.97087,4.093331 0.97088,-7.47918 0.97088,19.505087 0.97087,-4.776623 0.97088,-22.593596 0.97087,25.925302 0.97088,-23.571706 0.97088,39.607477 0.97087,-9.829604 0.97088,-21.027715 0.97088,13.417513 0.97087,-20.006169 0.97088,17.784625 0.97088,28.174554 0.97087,-26.420884 0.97088,8.507169 0.97088,17.039259 0.97087,-26.053503 0.97088,-6.320156 0.97087,32.199031 0.97088,11.855098 0.97088,-15.399249 0.97087,-17.366249 0.97088,33.73167 0.97088,8.84974 0.97087,-3.09662 0.97088,-16.664207 0.97087,27.940367 0.97088,7.9417 0.97088,-21.636391 0.97087,6.615421 0.97088,-12.267664 0.97088,30.394394 0.97087,6.28521 0.97088,-21.13461 0.97087,28.05236 0.97088,-13.54166 0.97088,-20.14817 0.97087,36.87941 0.97088,-23.38317 0.97088,-9.9289 0.97087,7.24951 0.97088,-1.95355 0.97088,27.65925 0.97087,-18.372 0.97088,-1.16017 0.97087,28.25544 0.97088,-27.4881 0.97088,36.37136 0.97087,-13.33703 0.97088,11.24481 0.97088,-19.33538 0.97087,27.83934 0.97088,-6.74013 0.97088,-24.84644 0.97087,-11.70206 0.97088,13.51998 0.97087,-12.14028 0.97088,10.7041 0.97088,0.007 0.97087,1.72842 0.97088,-12.95972 0.97088,31.8819 0.97087,-9.81678 0.97088,-19.13419 0.97088,12.00541 0.97087,6.59786 0.97088,9.05831 0.97087,-32.53857 0.97088,16.2446 0.97088,-28.52501 0.97087,31.12948 0.97088,-18.05523 0.97088,-12.45742 0.97087,7.68818 1.94175,10.55138 0.97088,-36.073337 0.97088,1.890666 0.97087,25.843741 0.97088,-20.075246 0.97088,20.444506 0.97087,-12.71079 0.97088,6.09208 0.97087,-14.576365 0.97088,3.024555 0.97088,2.14089 0.97087,-12.949809 0.97088,9.684657 0.97088,-9.997169 0.97087,-32.966367 0.97088,16.187456 0.97088,-8.271213 0.97087,-14.154236 0.97088,6.934325 0.97087,26.712909 0.97088,-0.111049 0.97088,-10.746672 0.97087,-20.733242 0.97088,-5.1386 0.97088,5.009708 0.97087,25.067516 0.97088,-12.874251 0.97088,-28.234444 0.97087,14.117295 0.97088,-6.138904 0.97088,20.009601 1.94175,-12.897495 0.97087,-9.094732 0.97088,4.881795 0.97088,25.037128 0.97087,1.112347 0.97088,-17.8306 0.97087,-8.664373 0.97088,-11.247931 0.97088,34.525322 0.97087,-8.658965 0.97088,4.398991 0.97088,5.421957 0.97087,-24.529742 0.97088,17.530556 0.97088,-3.221443 0.97087,-21.11452 0.97088,6.399606 0.97087,38.972048 0.97088,-22.558435 0.97088,24.974891 0.97087,-28.238435 0.97088,25.527574 0.97088,-15.27881 0.97087,-6.337985 0.97088,18.614293 0.97088,14.230606 0.97087,9.295151 0.97088,-17.679166 0.97088,19.594786 0.97087,-26.528134 0.97088,17.328922 0.97087,4.363562 0.97088,9.83634 0.97088,6.911 0.97087,-7.12912 0.97088,8.02111 0.97088,-18.2182 0.97087,29.77847 0.97088,-37.48255 0.97087,24.65691 0.97088,21.3579 0.97088,2.20653 0.97087,-39.88614 0.97088,35.68934 0.97088,-3.28223 0.97087,13.1675 0.97088,-22.32312 0.97088,-4.38798 0.97087,27.50274 1.94175,-20.97802 1.94176,15.74494 0.97087,13.02722 0.97088,-9.99915 0.97088,10.87442 0.97087,-24.70838 0.97088,3.18538 0.97087,-3.25761 0.97088,23.02747 0.97088,1.61161 0.97087,-6.91729 0.97088,-1.35658 0.97088,-20.77334 0.97087,-2.44417 0.97088,26.12105 1.94175,-26.77611 0.97088,23.52008 0.97087,-19.14474 0.97088,-14.7198 0.97088,34.65396 0.97087,2.52583 0.97088,-34.36773 0.97088,29.40709 0.97087,-27.65016 0.97088,-3.5623 0.97087,-7.44239 0.97088,-9.804325 0.97088,25.268515 0.97087,3.03909 0.97088,-27.333429 0.97088,25.866169 0.97087,-41.798965 0.97088,1.056869 0.97088,10.406247 0.97087,6.386769 0.97088,-29.999617 0.97087,27.326356 0.97088,-17.629897 1.94175,-8.825689 0.97088,28.796407 0.97088,-16.352877 0.97087,6.583241 0.97088,-0.340491 0.97087,-5.78817 0.97088,5.428417 0.97088,-4.86523 0.97087,-32.106502 0.97088,19.534819 0.97088,-26.977958 0.97087,-0.833983 0.97088,1.423205 0.97088,17.601781 0.97087,-12.130151 0.97088,24.624026 0.97087,-2.476962 0.97088,-40.650453 0.97088,32.540047 0.97087,-27.570517 0.97088,17.367942 0.97088,-3.201201 0.97087,-16.991217 0.97088,24.263317 0.97088,-20.392764 0.97087,23.867224 0.97088,1.313769 0.97087,6.178716 0.97088,-0.561748 0.97088,-2.408201 0.97087,-13.314141 0.97088,19.638155 0.97088,-25.646287 0.97087,21.86344 0.97088,-33.304275 0.97087,16.573605 0.97088,20.647599 0.97088,-18.534541 0.97087,-0.05312 0.97088,33.910227 0.97088,-40.057099 1.94175,23.877705 0.97088,-11.676845 0.97087,36.267432 0.97088,-0.165107 0.97087,2.906593 0.97088,-24.91114 0.97088,20.367931 0.97087,-3.094995 0.97088,3.371 0.97088,-1.307676 0.97087,-7.57059 0.97088,37.41663 0.97087,-11.51845 0.97088,-0.41827 0.97088,18.48642 0.97087,-28.7426 0.97088,-5.614613 0.97088,-1.252548 0.97087,42.398501 0.97088,-25.44425 0.97088,-5.12699 0.97087,6.39434 0.97088,24.72762 0.97088,-15.35762 0.97087,18.58702 0.97088,-11.97914 0.97087,26.90808 0.97088,-0.97036 0.97088,-4.53999 0.97087,-12.46472 0.97088,-21.94717 0.97088,18.31333 0.97087,11.84238 0.97088,10.20539 0.97088,-6.59301 0.97087,-18.46483 1.94175,10.60436 0.97088,11.3305 0.97088,-0.71793 0.97087,-32.74626 0.97088,0.0841 0.97087,24.32838 0.97088,-10.67955 0.97088,11.1171 0.97087,-31.85904 0.97088,33.05547 0.97088,-15.68169 0.97087,18.36259 0.97088,-35.36113 0.97088,13.60544 0.97087,1.02809 0.97088,-19.3187 0.97087,-4.39581 0.97088,-1.63112 0.97088,14.03333 0.97087,21.63971 0.97088,-30.24635 0.97088,8.93811 0.97087,-11.59893 0.97088,18.38146 0.97088,-13.0803 0.97087,9.20759 0.97088,-22.587921 0.97088,12.710341 0.97087,-15.396501 0.97088,-18.763585 0.97087,-2.13767 0.97088,-5.91878 0.97088,29.785581 0.97087,-30.650711 0.97088,15.63437 0.97088,-17.737812 0.97087,19.614675 0.97088,-33.161219 0.97087,31.347699 0.97088,-36.691121 0.97088,27.440718 0.97087,9.36596 1.94176,-27.470807 0.97087,-4.467768 0.97088,1.16362 0.97087,-9.530043 0.97088,15.827312 0.97088,11.576185 0.97087,-12.471266 0.97088,-25.038534 0.97088,15.226163 0.97087,-9.76545 0.97088,-6.391835 0.97088,23.978382 0.97087,-14.288498 0.97088,28.915781 0.97087,-30.957829 0.97088,-2.721238 0.97088,2.252904 0.97087,19.120705 0.97088,-9.287431 0.97088,-2.333111 0.97087,-7.638102 0.97088,-2.450756 0.97088,35.827272 0.97087,-23.148092 0.97088,7.368072 0.97087,27.215618 0.97088,-7.629382 0.97088,-11.495176 0.97087,2.172232 0.97088,9.436191 0.97088,18.815305 0.97087,-15.744399 0.97088,-0.87144 0.97088,11.890149 0.97087,-18.971234 0.97088,4.895438 0.97087,-10.188813 1.94176,29.023469 0.97087,4.426169 0.97088,-11.656877 0.97088,27.9848 0.97087,-25.771083 0.97088,5.74025 0.97087,-5.724679 0.97088,4.935191 0.97088,14.038341 0.97087,-1.09024 0.97088,29.39676 0.97088,-30.33402 0.97087,35.35553 1.94175,-38.31524 0.97088,44.75247 0.97088,-2.44678 0.97087,-14.20096 0.97088,20.63172 0.97088,-18.4603 0.97087,1.35228 0.97088,5.01998 1.94175,19.91949 0.97088,-39.14942 1.94175,33.92503 0.97088,-21.49625 0.97087,-14.44731 0.97088,9.70933 0.97088,34.1817 0.97087,-17.30134 0.97088,-3.49 0.97088,7.62749 0.97087,2.21069 0.97088,-32.79087 0.97087,-1.44591 0.97088,-2.87613 0.97088,0.42975 0.97087,28.60628 0.97088,10.33783 0.97088,-35.77427 0.97087,26.95698 0.97088,-24.1897 0.97087,3.63807 0.97088,0.97039 0.97088,6.95798 0.97087,-17.73219 0.97088,-0.79773 0.97088,13.47129 0.97087,-9.56524 0.97088,-7.74314 0.97088,2.47546 0.97087,-9.77384 0.97088,-17.52309 0.97087,36.50399 0.97088,-22.30337 0.97088,11.75061 0.97087,-13.015823 0.97088,10.950343 0.97088,-14.959263 0.97087,-5.248381 0.97088,-7.029431 0.97087,-12.007998 0.97088,1.295504 0.97088,10.248123 0.97087,-7.057956 0.97088,3.223662 0.97088,-21.571006 0.97087,-7.05564 0.97088,17.002397 0.97088,14.312986 0.97087,-17.33149 0.97088,13.882747 0.97087,-4.592213 0.97088,2.134827 0.97088,-33.655711 0.97087,-5.836824 0.97088,3.867575 0.97088,21.716693 0.97087,-20.323088 0.97088,-4.057246 0.97088,-2.058742 0.97087,25.138424 0.97088,-23.369614 0.97087,34.830597 0.97088,-24.196948 1.94175,20.185981 0.97088,-23.695799 0.97088,-11.623551 0.97087,29.720757 0.97088,-29.961586 0.97087,12.469481 0.97088,-3.428152 0.97088,9.720822 0.97087,-6.988462 0.97088,20.15071 0.97088,11.490748 0.97087,-24.64701 0.97088,30.585965 0.97088,6.707643 0.97087,-21.380949 0.97088,-14.407483 0.97088,39.035419 0.97087,-25.554669 0.97088,-8.994478 0.97087,11.448061 0.97088,13.02463 0.97088,-15.197632 0.97087,10.522621 0.97088,-3.55393 0.97088,38.746789 0.97087,-10.71598 0.97088,13.77794 0.97087,0.93489 0.97088,-30.000408 0.97088,35.610388 0.97087,-27.819701 0.97088,34.675371 0.97088,6.59951 0.97087,-10.88799 0.97088,6.69385 0.97087,-8.72474 0.97088,-10.01591 0.97088,20.32578 0.97087,-23.26255 0.97088,2.21879 0.97088,-3.08869 1.94175,22.64317 0.97088,21.28818 0.97087,-13.75323 0.97088,-7.76776 0.97087,20.06506 0.97088,6.46383 0.97088,-13.23974 0.97087,-16.48199 0.97088,17.93075 0.97091,-5.26717 0.9708,-4.57147 0.9709,14.76485 0.9709,-1.00012 0.9709,-7.47408 0.9708,-12.30833 0.9709,15.55271 0.9709,-23.64039 0.9709,33.16443 0.9709,-18.29641 0.9708,-13.76869 0.9709,5.27804 0.9709,-5.08437 0.9709,-12.75528 0.9708,11.2652 0.9709,-10.51712 0.9709,5.42843 0.9709,31.47715 0.9708,-32.71068 0.9709,4.57355 0.9709,-20.107363 0.9709,19.516263 1.9417,-27.046579 0.9709,15.871529 0.9709,11.91603 0.9709,-1.0349 0.9708,-29.981247 0.9709,5.347716 0.9709,21.857251 0.9709,-5.01023 0.9708,1.45419 0.9709,-33.302759 0.9709,12.285528 0.9709,-26.337484 1.9417,8.666892 0.9709,-16.623888 0.9709,-4.447485 0.9708,33.839982 0.9709,-3.501196 0.9709,-5.780784 0.9709,-30.278831 0.9708,6.325474 0.9709,-10.71841 0.9709,6.91974 1.9418,-8.229885 0.9708,7.557085 0.9709,19.521996 0.9709,6.335596 0.9709,-29.945739 0.9708,7.935387 0.9709,19.449323 0.9709,-29.29816 0.9709,2.771627 0.9708,-4.988865 0.9709,13.487067 0.9709,-10.171339 0.9709,7.38226 0.9708,19.318374 0.9709,-15.380244 0.9709,9.713335 0.9709,-25.865909 0.9709,-2.018846 0.9708,27.027738 0.9709,-18.094327 0.9709,24.264464 0.9709,-25.749084 0.9708,13.898612 0.9709,19.011895 0.9709,-29.419844 0.9709,23.300391 0.9708,4.655631 0.9709,7.850028 0.9709,4.337049 0.9709,-30.444717 0.9708,2.882452 0.9709,18.132712 0.9709,-5.773519 0.9709,27.803347 0.9708,-11.092125 0.9709,-16.190279 0.9709,6.983383 0.9709,3.527664 0.9709,21.352517 0.9708,-12.26697 0.9709,7.85379 0.9709,20.29023 0.9709,-17.01799 0.9708,8.98344 0.9709,-0.67913 0.9709,1.32604 0.9709,-14.526143 0.9708,36.811853 0.9709,-8.7596 0.9709,-24.73277 0.9709,44.71212 0.9708,-16.28194 0.9709,5.33995 0.9709,6.09184 0.9709,-31.91174 0.9709,14.7718 0.9708,29.85264 0.9709,-16.1618 0.9709,17.39348 0.9709,-38.23331 0.9708,23.8083 0.9709,10.7348 0.9709,-6.10087 0.9709,7.77069 0.9708,-7.44283 0.9709,-18.90576 0.9709,-4.84785 0.9709,39.19213 0.9708,-42.18414 0.9709,28.37159 0.9709,-24.05454 0.9709,28.77844 0.9709,-31.48732 0.9708,10.1671 0.9709,15.89846 0.9709,5.04945 0.9709,-32.61196 0.9708,-1.61969 0.9709,9.66711 0.9709,-9.06995 0.9709,27.48277 0.9708,-26.49354 0.9709,21.3525 0.9709,-41.669743 0.9709,5.835183 0.9708,16.94934 0.9709,6.49688 0.9709,-5.20842 0.9709,-23.52151 0.9708,15.34512 0.9709,-23.04277 0.9709,5.324671 0.9709,22.154259 0.9709,-29.789428 0.9708,21.169928 0.9709,-30.861067 0.9709,3.907898 0.9709,25.243559 0.9708,-35.169891 0.9709,-5.260033 0.9709,15.700985 0.9709,8.453548 1.9417,-16.499616 0.9709,-3.761925 0.9709,-4.735147 0.9708,-18.248048 0.9709,34.264476 0.9709,-14.402697 0.9709,-28.521021 0.9709,37.912897 0.9708,-39.417138 0.9709,24.960586 0.9709,1.572733 0.9709,-24.434889 0.9708,6.929241 0.9709,-5.86588 0.9709,5.432483 0.9709,8.047496 0.9708,-8.165289 0.9709,-14.019662 0.9709,0.121119 0.9709,-3.587815 0.9708,21.885395 0.9709,1.355706 0.9709,-8.008569 0.9709,22.383745 0.9708,-12.105213 0.9709,-0.798409 0.9709,10.980202 0.9709,-1.913903 0.9709,8.699807 0.9708,-24.787705 0.9709,1.235987 0.9709,19.884946 0.9709,-21.393179 0.9708,-2.716323 0.9709,14.074536 0.9709,10.72794 0.9709,15.732892 0.9708,-20.62321 0.9709,25.182544 0.9709,0.450061 0.9709,4.547947 0.9708,-12.731161 0.9709,25.024561 0.9709,-35.338181 0.9709,21.695969 0.9709,-0.806489 0.9708,-18.0636 v 0"
           style="fill:none;stroke:#1f77b4;stroke-width:1;stroke-linecap:square;stroke-linejoin:round;stroke-miterlimit:10;stroke-dasharray:none;stroke-opacity:1"
           id="path144"
           inkscape:connector-curvature="0" /></g></g><g
       id="g146"><g
         id="g148"
         clip-path="url(#clipPath152)"><path
           d="m 220.57527,98.77426 4.85438,13.25352 2.91263,7.34525 2.91263,6.59956 1.94175,3.88001 1.94176,3.39893 1.94175,2.86946 1.94175,2.29915 0.97088,0.92515 0.97088,0.77096 0.97087,0.61402 0.97088,0.4549 0.97087,0.29415 0.97088,0.13236 0.97088,-0.0299 0.97087,-0.19205 0.97088,-0.35353 0.97088,-0.51374 0.97087,-0.67213 0.97088,-0.82811 1.94175,-2.11185 1.94175,-2.6934 1.94176,-3.23661 1.94175,-3.73375 1.94175,-4.17774 2.91263,-6.96748 2.91263,-7.60854 4.85438,-13.438595 4.85438,-13.350006 2.91263,-7.472969 2.91263,-6.774992 1.94175,-4.020766 1.94176,-3.556418 1.94175,-3.041445 1.94175,-2.483178 1.94176,-1.889562 0.97087,-0.713429 0.97088,-0.555622 0.97087,-0.395835 0.97088,-0.234638 0.97088,-0.07261 0.97087,0.08969 0.97088,0.251656 0.97088,0.412731 0.97087,0.572336 0.97088,0.729902 0.97088,0.884868 1.94175,2.221489 1.94175,2.796585 1.94175,3.331872 1.94175,3.81973 1.94176,4.253215 2.91263,7.058693 2.91263,7.670823 5.82525,16.185035 3.88351,10.58413 2.91263,7.39974 2.91263,6.67381 1.94175,3.93934 1.94175,3.46515 1.94175,2.94164 1.94176,2.37623 1.94175,1.77703 0.97088,0.65555 0.97087,0.49695 0.97088,0.33658 0.97088,0.17501 0.97087,0.0128 0.97088,-0.14943 0.97087,-0.31113 0.97088,-0.47174 0.97088,-0.63065 0.97087,-0.78733 1.94176,-2.03291 1.94175,-2.61889 1.94175,-3.16761 1.94175,-3.67123 1.94176,-4.12259 2.91263,-6.90026 2.91263,-7.5618 4.85438,-13.40993 4.85438,-13.384618 2.91263,-7.52306 2.91263,-6.845262 1.94175,-4.077737 1.94175,-3.620559 1.94175,-3.111843 1.94176,-2.55883 1.94175,-1.969393 0.97088,-0.754558 0.97087,-0.597365 0.97088,-0.438044 0.97087,-0.277163 0.97088,-0.115295 0.97088,0.04698 0.97087,0.209095 0.97088,0.370462 0.97088,0.530509 0.97087,0.688667 0.97088,0.844371 1.94175,2.143282 1.94175,2.723018 1.94176,3.263991 1.94175,3.758502 1.94175,4.199512 2.91263,6.993887 2.91263,7.626712 5.82526,16.163839 3.8835,10.62053 2.91263,7.45241 2.91263,6.74642 1.94175,3.9977 1.94176,3.53051 1.94175,3.01308 1.94175,2.45274 1.94176,1.8575 0.97087,0.69693 0.97088,0.53888 0.97087,0.37893 0.97088,0.21761 0.97088,0.0555 0.97087,-0.10676 0.97088,-0.26866 0.97088,-0.42961 0.97087,-0.58903 0.97088,-0.74634 1.94175,-1.95347 1.94175,-2.54375 1.94176,-3.09782 1.94175,-3.6078 1.94175,-4.06643 2.91263,-6.83134 2.91263,-7.51319 4.85438,-13.377961 5.82526,-15.998145 2.91263,-7.378165 2.91263,-6.644306 1.94175,-3.915728 1.94175,-3.438764 1.94175,-2.912849 1.94176,-2.345472 1.94175,-1.744707 0.97088,-0.63896 0.97087,-0.480145 0.97088,-0.31962 0.97088,-0.157955 0.97087,0.0043 0.97088,0.166483 0.97088,0.328102 0.97087,0.488551 0.97088,0.647262 0.97087,0.803665 1.94176,2.064547 1.94175,2.648778 1.94175,3.195305 1.94176,3.696347 1.94175,4.144773 2.91263,6.927355 2.91262,7.58072 4.85439,13.421791 4.85438,13.371168 2.91263,7.50325 2.91263,6.81735 1.94175,4.05507 1.94175,3.59501 1.94175,3.08378 1.94176,2.52864 1.94175,1.93752 0.97088,0.73813 0.97087,0.58068 0.97088,0.42117 0.97087,0.26017 0.97088,0.0982 0.97088,-0.0641 0.97087,-0.22612 0.97088,-0.38739 0.97088,-0.54725 0.97087,-0.70518 0.97088,-0.8606 1.94175,-2.17463 1.94175,-2.75252 1.94176,-3.29125 1.94175,-3.7831 1.94175,-4.22112 2.91263,-7.02002 2.91263,-7.64458 5.82526,-16.172796 3.8835,-10.606284 2.91263,-7.431567 2.91263,-6.717572 1.94175,-3.974474 1.94176,-3.504472 1.94175,-2.984586 1.94175,-2.422214 1.94175,-1.825362 0.97088,-0.680398 0.97088,-0.522128 0.97087,-0.361997 0.97088,-0.200576 0.97088,-0.03844 0.97087,0.123829 0.97088,0.285661 0.97088,0.446473 0.97087,0.605696 0.97088,0.762761 1.94175,1.985302 1.94175,2.573885 1.94176,3.125831 1.94175,3.633281 1.94175,4.089011 2.91263,6.859113 2.91263,7.532857 4.85438,13.391144 5.82526,15.980612 2.91263,7.35629 2.91263,6.61454 1.94175,3.89196 1.94175,3.41224 1.94176,2.88396 1.94175,2.31461 1.94175,1.71232 0.97088,0.62234 0.97087,0.46332 0.97088,0.30265 0.97088,0.14089 0.97087,-0.0214 0.97088,-0.18353 0.97088,-0.34506 0.97087,-0.50535 0.97088,-0.66384 0.97087,-0.81997 1.94176,-2.0961 1.94175,-2.67856 1.94175,-3.22287 1.94176,-3.72132 1.94175,-4.16679 2.91263,-6.95418 2.91263,-7.59934 4.85438,-13.433123 4.85438,-13.357193 2.91263,-7.483135 2.91263,-6.78918 1.94175,-4.03224 1.94175,-3.569317 1.94175,-3.055585 1.94176,-2.498358 1.94175,-1.905567 0.97088,-0.721669 0.97087,-0.563981 0.97088,-0.404285 0.97088,-0.243149 0.97087,-0.08114 0.97088,0.08114 0.97087,0.243149 0.97088,0.404285 0.97088,0.563981 0.97087,0.721669 0.97088,0.876787 1.94175,2.20589 1.94175,2.781926 1.94176,3.318361 1.94175,3.80756 1.94175,4.242558 2.91263,7.04587 2.91263,7.662152 5.82526,16.181114 3.8835,10.59162 2.91263,7.41043 2.91263,6.68846 1.94175,3.95109 1.94176,3.47829 1.94175,2.95598 1.94175,2.39159 1.94176,1.79315 0.97087,0.66384 0.97088,0.50535 0.97087,0.34506 0.97088,0.18353 0.97088,0.0214 0.97087,-0.14089 0.97088,-0.30265 0.97088,-0.46332 0.97087,-0.62234 0.97088,-0.77914 1.94175,-2.01707 1.94175,-2.60392 1.94176,-3.15371 1.94175,-3.65861 1.94175,-4.11144 2.91263,-6.88662 2.91263,-7.55222 4.85438,-13.403802 4.85438,-13.391144 2.91263,-7.532857 2.91263,-6.859113 1.94175,-4.089011 1.94176,-3.633281 1.94175,-3.125831 1.94175,-2.573885 1.94175,-1.985302 0.97088,-0.762761 0.97088,-0.605696 0.97087,-0.446473 0.97088,-0.285661 0.97088,-0.123829 0.97087,0.03844 0.97088,0.200576 0.97088,0.361997 0.97087,0.522128 0.97088,0.680398 0.97088,0.836247 1.94175,2.127577 1.94175,2.708222 1.94175,3.250318 1.94176,3.746145 1.94175,4.188647 2.91263,6.980718 2.91263,7.617664 4.85438,13.443925 4.85438,13.342694 2.91263,7.46273 2.91263,6.76073 1.94175,4.00925 1.94175,3.54349 1.94176,3.02727 1.94175,2.46798 1.94175,1.87354 0.97088,0.70518 0.97087,0.54725 0.97088,0.38739 0.97088,0.22612 0.97087,0.0641 0.97088,-0.0982 0.97088,-0.26017 0.97087,-0.42117 0.97088,-0.58068 0.97087,-0.73813 0.97088,-0.89294 1.94175,-2.23707 1.94176,-2.81121 1.94175,-3.34535 1.94175,-3.83187 1.94175,-4.26383 2.91263,-7.07144 2.91263,-7.67942 6.79614,-18.882748 3.8835,-10.412496 2.91263,-7.170944 1.94175,-4.347228 1.94176,-3.927555 1.94175,-3.451974 1.94175,-2.927255 1.94175,-2.360867 1.94176,-1.760872 0.97087,-0.647262 0.97088,-0.488551 0.97087,-0.328102 0.97088,-0.166483 0.97088,-0.0043 0.97087,0.157955 0.97088,0.31962 0.97088,0.480145 0.97087,0.63896 0.97088,0.795501 1.94175,2.048737 1.94175,2.633852 1.94176,3.181473 1.94175,3.683806 1.94175,4.133702 2.91263,6.913843 2.91263,7.571296 4.85438,13.415926 4.85438,13.377961 2.91263,7.51319 2.91263,6.83134 1.94175,4.06643 1.94176,3.6078 1.94175,3.09782 1.94175,2.54375 1.94175,1.95347 0.97088,0.74634 0.97088,0.58903 0.97087,0.42961 0.97088,0.26866 0.97088,0.10676 0.97087,-0.0555 0.97088,-0.21761 0.97088,-0.37893 0.97087,-0.53888 0.97088,-0.69693 0.97088,-0.85249 1.94175,-2.15896 1.94175,-2.73779 1.94175,-3.27763 1.94176,-3.77082 1.94175,-4.21034 2.91263,-7.00698 2.91263,-7.63569 5.82525,-16.168398 3.88351,-10.613459 2.91263,-7.442028 2.91263,-6.732026 1.94175,-3.986107 1.94171,-3.517511 1.9418,-2.998845 1.9417,-2.437491 1.9418,-1.841439 0.9709,-0.688667 0.9709,-0.530509 0.9708,-0.370462 0.9709,-0.209095 0.9709,-0.04698 0.9709,0.115295 0.9708,0.277163 0.9709,0.438044 0.9709,0.597365 0.9709,0.754558 1.9417,1.969393 1.9418,2.55883 1.9417,3.111843 1.9418,3.620559 1.9417,4.077737 2.9127,6.845262 2.9126,7.52306 4.8544,13.384618 5.8252,15.98945 2.9127,7.36727 2.9126,6.62946 1.9417,3.90386 1.9418,3.42552 1.9417,2.89841 1.9418,2.33006 1.9417,1.72852 0.9709,0.63065 0.9709,0.47174 0.9709,0.31113 0.9709,0.14943 0.9708,-0.0128 0.9709,-0.17501 0.9709,-0.33658 0.9709,-0.49695 0.9708,-0.65555 0.9709,-0.81183 1.9418,-2.08033 1.9417,-2.66368 1.9418,-3.20911 1.9417,-3.70885 1.9418,-4.1558 2.9126,-6.9408 2.9126,-7.59007 4.8544,-13.427519 4.8544,-13.364247 2.9126,-7.493227 2.9127,-6.803302 1.9417,-4.043674 1.9418,-3.582181 1.9417,-3.069695 1.9418,-2.513513 1.9417,-1.921552 0.9709,-0.729902 0.9709,-0.572336 0.9708,-0.412731 0.9709,-0.251656 0.9709,-0.08969 0.9709,0.07261 0.9709,0.234638 0.9708,0.395835 0.9709,0.555622 0.9709,0.713429 0.9709,0.868695 1.9417,2.190271 1.9418,2.76724 1.9417,3.304817 1.9418,3.795351 1.9417,4.231859 2.9126,7.032978 2.9127,7.653406 5.8252,16.177034 3.8835,10.599 2.9127,7.42104 2.9126,6.70305 1.9418,3.9628 1.9417,3.4914 1.9418,2.9703 1.9417,2.40691 1.9418,1.80926 0.9708,0.67213 0.9709,0.51374 0.9709,0.35353 0.9709,0.19205 0.9708,0.0299 0.9709,-0.13236 0.9709,-0.29415 0.9709,-0.4549 0.9708,-0.61402 0.9709,-0.77096 1.9418,-2.00119 1.9417,-2.58892 1.9418,-3.13979 1.9417,-3.64596 1.9418,-4.10024 2.9126,-6.8729 2.9126,-7.54258 4.8544,-13.397539 v 0"
           style="fill:none;stroke:#ff7f0e;stroke-width:3;stroke-linecap:square;stroke-linejoin:round;stroke-miterlimit:10;stroke-dasharray:none;stroke-opacity:1"
           id="path154"
           inkscape:connector-curvature="0" /></g></g><g
       id="g156"><path
         d="M 172.08,21.3048 V 170.4384"
         style="fill:none;stroke:#000000;stroke-width:0.80000001;stroke-linecap:square;stroke-linejoin:miter;stroke-miterlimit:10;stroke-dasharray:none;stroke-opacity:1"
         id="path158"
         inkscape:connector-curvature="0" /><path
         d="M 1238.976,21.3048 V 170.4384"
         style="fill:none;stroke:#000000;stroke-width:0.80000001;stroke-linecap:square;stroke-linejoin:miter;stroke-miterlimit:10;stroke-dasharray:none;stroke-opacity:1"
         id="path160"
         inkscape:connector-curvature="0" /><path
         d="M 172.08,21.3048 H 1238.976"
         style="fill:none;stroke:#000000;stroke-width:0.80000001;stroke-linecap:square;stroke-linejoin:miter;stroke-miterlimit:10;stroke-dasharray:none;stroke-opacity:1"
         id="path162"
         inkscape:connector-curvature="0" /><path
         d="M 172.08,170.4384 H 1238.976"
         style="fill:none;stroke:#000000;stroke-width:0.80000001;stroke-linecap:square;stroke-linejoin:miter;stroke-miterlimit:10;stroke-dasharray:none;stroke-opacity:1"
         id="path164"
         inkscape:connector-curvature="0" /></g></g></svg>